/* XPM */
static char *result[] = {
/* columns rows colors chars-per-pixel */
"32 32 153 2 ",
"   c #150606",
".  c #250C0A",
"X  c #24150A",
"o  c #2D100C",
"O  c #36130D",
"+  c #3C170F",
"@  c #2B2709",
"#  c #392A0E",
"$  c #38310D",
"%  c #4F170C",
"&  c #50170D",
"*  c #451B11",
"=  c #5B1E10",
"-  c #761B08",
";  c #7A1B08",
":  c #413E0F",
">  c #422410",
",  c #493712",
"<  c #65200E",
"1  c #77210B",
"2  c #683614",
"3  c #613810",
"4  c #73381B",
"5  c #4B4711",
"6  c #4E4D12",
"7  c #564912",
"8  c #535313",
"9  c #5B5315",
"0  c #5C5B15",
"q  c #70481A",
"w  c #645617",
"e  c #625F17",
"r  c #765414",
"t  c #795E16",
"y  c #626417",
"u  c #64651A",
"i  c #6C6E1A",
"p  c #746417",
"a  c #7B6316",
"s  c #736D19",
"d  c #7B6A1A",
"f  c #6E721A",
"g  c #727516",
"h  c #767912",
"j  c #72751B",
"k  c #75781E",
"l  c #797A1E",
"z  c #5D4924",
"x  c #7D6B28",
"c  c #747625",
"v  c #7A7720",
"b  c #7B7A21",
"n  c #74772B",
"m  c #767928",
"M  c #787B2A",
"N  c #727633",
"B  c #767A33",
"V  c #7D6359",
"C  c #7A7E58",
"Z  c #8D1E06",
"A  c #921F05",
"S  c #8A2909",
"D  c #9A2104",
"F  c #8A360C",
"G  c #933609",
"H  c #922C1A",
"J  c #A32302",
"K  c #AD2503",
"L  c #B22601",
"P  c #AB3E08",
"I  c #BB3A05",
"U  c #C13603",
"Y  c #894C17",
"T  c #855815",
"R  c #9A5914",
"E  c #A4470B",
"W  c #AA5B11",
"Q  c #B35C10",
"!  c #856A18",
"~  c #8B6E18",
"^  c #996916",
"/  c #877319",
"(  c #9B7519",
")  c #A07518",
"_  c #BC721E",
"`  c #847D25",
"'  c #857928",
"]  c #8A7D29",
"[  c #C64908",
"{  c #CA4C08",
"}  c #C3570E",
"|  c #C06C13",
" . c #D36F16",
".. c #C8771A",
"X. c #DB7312",
"o. c #D87616",
"O. c #E17411",
"+. c #D17030",
"@. c #7D8160",
"#. c #878026",
"$. c #8A8327",
"%. c #8C8229",
"&. c #958828",
"*. c #99892E",
"=. c #9B8532",
"-. c #A58027",
";. c #AF9729",
":. c #B19A2B",
">. c #A6883A",
",. c #AA9236",
"<. c #B29839",
"1. c #B3A435",
"2. c #DF861C",
"3. c #C18826",
"4. c #E99422",
"5. c #ED9E25",
"6. c #EEA32A",
"7. c #EEAC2F",
"8. c #F1AE33",
"9. c #F3B738",
"0. c #F8C73E",
"q. c #F6C83F",
"w. c #828246",
"e. c #848456",
"r. c #87875B",
"t. c #B2A74C",
"y. c #B3A84D",
"u. c #918867",
"i. c #92946C",
"p. c #93917B",
"a. c #CCB459",
"s. c #EB9E62",
"d. c #E39774",
"f. c #EFB177",
"g. c #F0B57D",
"h. c #F9CA41",
"j. c #FDD84B",
"k. c #F6C75E",
"l. c #FFE053",
"z. c #E2CD70",
"x. c #F2DB77",
"c. c #FFE56D",
"v. c #FEE57C",
"b. c #8D9485",
"n. c #B6B7A5",
"m. c #E5A693",
"M. c #EDB694",
"N. c #FEE386",
"B. c #FFE881",
"V. c #FFE988",
"C. c #FFEB92",
"Z. c #FFED9A",
"A. c #FFEEA2",
/* pixels */
"j j j j j j j j j j j j j j j j j j j j f j k j j j j j j j j j ",
"j j j j j j j j j j j j g j j j j j j j j f f j j j j j j j j j ",
"j j j j j j j j j j j j j j j j j j j j j j j j j j j j j j j j ",
"j j j j j j j j j j j j j j i s j j j j j j j k j j j j j j j j ",
"j j j j j j j j j j j j j j f j f $ @ 0 f j g k h f j k j j j j ",
"j g j j j j j j j j j j j j j j 0   $ f j j g @.b.m k j j j j j ",
"j j j j j j j j j r r g j c k j 6 $ i j j j j @.b.m j f j j j j ",
"j j j j g j j j p - - t k j i 5 X y f j j j j N N j f f j g j j ",
"j j j j j j j j s 1 - p g g 8 . : ! ~ j j j j j j j j j j j j j ",
"j j j j j j j j j s s j j j 0 . G { { ^ j j j j j j j j j k k j ",
"j j j j j j j j j j j j j j 6 O [ { { Q j j j j j j j j j k k j ",
"j j j f b v f g j j j j j j $ O P { { W j j j f j j j j j j j j ",
"j j j v =.=.*.$.j j j j j s # ; A W ^ d c j k v j j j j j j f j ",
"j j g k ' ] <.] j j j j f + o K L E k l B ! a d B j j j j j j j ",
"j j j j i c ` j j j j j y - D J K T j @.u.H A F i.c j j j j j j ",
"j j j j j j g j j j j j 3 J J D % 7 i g C H A S x j j j j j j j ",
"j j j j j j j j j ! I I & D J J }  .+./ t Z A T j j j j j j j j ",
"j j j j j j j j j R U I 1 & 1 < X.d.m.| a S F s j g j j j j j j ",
"j j j j j j g j j ! R S O * Y ..4.f.M.R j ~ / j j j j g j j j j ",
"j j j j j j j j j j , + + 2 2.4.5.s.g.;.( X.X.( j j j j j j j j ",
"j j j j c k j j j i > = K } 6.0.h.8.5.7.o.O.O.) j j f k j j f j ",
"j j k v f j j j i.r.w R  . .9.q.h.h.8.9.3.X.X.( j j j f j j j j ",
"j j f f f j j g c n.V 4.4.k.V.N.x.c.v.B.x.a.` j j j j k k b j j ",
"j j f k j j j c s 9 C 4.6.C.A.A.A.v.B.B.B.B.>.v f k k k k v j j ",
"j j j j j j j f , * 4 _ 7.C.A.A.A.V.C.B.B.N.u g j j %.<.%.c k j ",
"j j j j j j j j 0 > q -.h.B.A.A.A.C.Z.B.v.z.X u k j b &.#.] v j ",
"j j j j j j j j j j l q.h.j.v.C.A.A.Z.v.v.z > g l j j k =.>.' j ",
"j j k h g k j j j g l q.h.h.j.l.v.V.v.v.v.z e j j k f &.,.] j j ",
"j k %.u.w.j l k k k f &.:.;.;.1.1.y.y.y.t.c j j f j k ` #.k j j ",
"j k @.p.e.g B M f k j j j j j j k j l k l k j j j j f f f j j j ",
"j j n @.n n u.p.c c j j j j j j j j k $.=.b j j j j j j k k k k ",
"j j j j j j @.@.r.b.g j j j j j j j j f k j j j j j j j k l f j "
};
