/* XPM */
static char *result[] = {
/* columns rows colors chars-per-pixel */
"32 32 157 2 ",
"   c #1A0907",
".  c #220B09",
"X  c #290D0A",
"o  c #2A1E0B",
"O  c #33110D",
"+  c #331A0E",
"@  c #3E1F10",
"#  c #3A260E",
"$  c #3D3A0D",
"%  c #45130D",
"&  c #4E1309",
"*  c #5B160B",
"=  c #4C1A10",
"-  c #64170A",
";  c #731906",
":  c #781A07",
">  c #741B0A",
",  c #453E0F",
"<  c #572813",
"1  c #4B3C12",
"2  c #5A3012",
"3  c #792808",
"4  c #683C0F",
"5  c #7B380E",
"6  c #742A18",
"7  c #753B17",
"8  c #4E4B0F",
"9  c #4C4612",
"0  c #4F4F12",
"q  c #574716",
"w  c #545513",
"e  c #5B5315",
"r  c #5E5E16",
"t  c #6A4D12",
"y  c #744517",
"u  c #675A16",
"i  c #6E5B16",
"p  c #6E5F18",
"a  c #71551A",
"s  c #646417",
"d  c #6C6619",
"f  c #666918",
"g  c #6B6D19",
"h  c #716C1A",
"j  c #6E721A",
"k  c #727516",
"l  c #767912",
"z  c #72751B",
"x  c #7B721A",
"c  c #76791E",
"v  c #787A1E",
"b  c #736C20",
"n  c #747425",
"m  c #7B7A21",
"M  c #787927",
"N  c #74772B",
"B  c #737632",
"V  c #767A33",
"C  c #797E46",
"Z  c #7A7F59",
"A  c #801C07",
"S  c #8F1F05",
"D  c #911F05",
"F  c #882707",
"G  c #922006",
"H  c #9B2204",
"J  c #952C06",
"K  c #85360C",
"L  c #8C3B12",
"P  c #AD2A03",
"I  c #B12601",
"U  c #AD3705",
"Y  c #C33B04",
"T  c #834E0F",
"R  c #8D4712",
"E  c #8C5813",
"W  c #A5440E",
"Q  c #AC530E",
"!  c #A54D10",
"~  c #846215",
"^  c #896B17",
"/  c #9D6B18",
"(  c #88741A",
")  c #907219",
"_  c #B76011",
"`  c #BA6616",
"'  c #B47117",
"]  c #847C25",
"[  c #857928",
"{  c #8A7D29",
"}  c #D35C0C",
"|  c #CB630F",
" . c #C36311",
".. c #CB6E17",
"X. c #E27A14",
"o. c #826557",
"O. c #CC6C50",
"+. c #7D8160",
"@. c #878026",
"#. c #8A8327",
"$. c #8C8229",
"%. c #99892E",
"&. c #9B8532",
"*. c #AD8F25",
"=. c #AE9C2F",
"-. c #A48439",
";. c #AA9236",
":. c #B29839",
">. c #B3A236",
",. c #E7891D",
"<. c #E88C1D",
"1. c #D69524",
"2. c #E99424",
"3. c #EC9A26",
"4. c #CDB338",
"5. c #F0AB2F",
"6. c #E8A830",
"7. c #F1AE31",
"8. c #F2B233",
"9. c #F6BF3A",
"0. c #828246",
"q. c #838355",
"w. c #86835B",
"e. c #918D69",
"r. c #92946B",
"t. c #868D78",
"y. c #989177",
"u. c #B3AC6A",
"i. c #B3AD73",
"p. c #B3AE79",
"a. c #E1864B",
"s. c #E1B14A",
"d. c #F4B943",
"f. c #D98773",
"g. c #E49660",
"h. c #E2C240",
"j. c #F0C740",
"k. c #F8C848",
"l. c #F8D345",
"z. c #FEDB49",
"x. c #F8CA55",
"c. c #FDD959",
"v. c #F9CD6D",
"b. c #FDDC66",
"n. c #F6C672",
"m. c #FFE46E",
"M. c #FFE573",
"N. c #8D9485",
"B. c #9C9986",
"V. c #DFA093",
"C. c #FEE586",
"Z. c #FFE98C",
"A. c #FCE693",
"S. c #FFF2B7",
"D. c #FFF3BC",
"F. c #FFF4C2",
"G. c #FFF5C9",
/* pixels */
"z z z z z z z z z z z z z z z k z z z z j c z z z z z z z z z z ",
"z z z z z z z z z k z z z z z z z z z z z j j z z z z z z z z z ",
"z z z z z z z z z z z z z z f k z z z z z z z j z z z z z z j z ",
"z z z z z z z z z z z z z z s j z j g z z z z m c z z z z z z z ",
"z z z z z z z k z z z z z z z z z $ w z z z z c l z z z z z z z ",
"z z z z z z z z p t d z z z z z g   s z z z j V N.M c z z z z z ",
"z z z z z k z z 4 - i z z m z g $ 0 z z z z n t.N.M z z z z z z ",
"z z z z z z z z t 4 d c n z j o , ~ ^ z z z z B B z z z z z z z ",
"z z z z z z z z z z z z j j r . F Y Y Q z z z z j z z z z z z z ",
"j z z z z z z z z z z z z z r   J Y Y Y x z z z z z z z z c c z ",
"z z z z z z z z z z z f z g 9 X 3 Y Y Q k z z z z z z z z z c z ",
"z z z k m v j z z z z z z 1 . : ; T E q z z z z z z z z z j z z ",
"z z z v &.&.%.$.z z z z g # X H H E z z M z z c z z z z z z j z ",
"z z z n [ { :.] z z z z s O X ; F h r.c C B y h V z z z z z z z ",
"z z z z h z ] z z z z z 8 % - &   9 q.+.o.L ; y y.M z z z z z z ",
"z z z z z z z z z z z h + A D D 5 O.a./ Z Z > y V z z z z z z z ",
"z z z z z z z z z z U P * : D S U f.V._ k 6 6 b z z z z z z z z ",
"z z z z z z z z z z U I > % W |  .a.g.' k 5 K h z z z z z z z z ",
"z z z z z z z z z g 2 - O 5 X.2.3.,.<.1.( | } / z z z z z z z z ",
"z z z z z z z z z e O O @ R 3.5.8.7.,.3.' } }  .z z z z z z z z ",
"z z z z n z z z z e # = G W d.x.d.9.8.6.(  .| ) z z z z z k z z ",
"z z z c z z z z z z u ! ..s.M.M.M.c.l.j.4.=.x z z z z z z z z z ",
"z z z z z z z z z k < X.8.b.M.M.M.m.z.z.z.z.>.z z z z c c c n z ",
"z z z z z z k z d 1 < X.5.b.M.M.M.C.M.z.z.z.l.v z z v z c c z z ",
"z z z z z z z z w < 7 ` 7.k.Z.Z.Z.G.G.C.z.z.h.z z z #.;.#.c z z ",
"z z z z z z z z z e a L 6.v.F.F.S.D.D.F.M.s.q g c z @.%.{ { m z ",
"z z c z z z z z z z j R 8.n.F.F.D.S.S.D.A.q + f m z j c %.-.[ z ",
"j z c l k c z z z z z ) 8.n.F.F.D.S.S.S.Z.d u z z c z $.;.{ z z ",
"z c 0.e.0.z c c c z z v *.:.p.p.i.u.i.i.>.c z z z z j @.#.z z z ",
"z k q.B.q.k V M z z z z j z z z z z v z c m z z z z z j j z z z ",
"z z N C N B e.y.N n z z z z z z z z c #.&.m z z z z j z c c m m ",
"z z z z z j +.+.w.N.z z z z z z z z z z z z z z z z c j c m j j "
};
