/* XPM */
static char *result[] = {
/* columns rows colors chars-per-pixel */
"32 32 161 2 ",
"   c #160906",
".  c #1A0807",
"X  c #1D0C08",
"o  c #1B1007",
"O  c #2B0F0B",
"+  c #2B1A0B",
"@  c #371A0B",
"#  c #3A2C0E",
"$  c #37340C",
"%  c #3C340E",
"&  c #42190F",
"*  c #57170D",
"=  c #491D12",
"-  c #531F10",
";  c #4C2112",
":  c #532313",
">  c #5A2313",
",  c #5A3914",
"<  c #6F260F",
"1  c #79240F",
"2  c #7D3911",
"3  c #444210",
"4  c #4D4D11",
"5  c #574B15",
"6  c #525212",
"7  c #5D5516",
"8  c #5B5D15",
"9  c #624314",
"0  c #615817",
"q  c #6B5B15",
"w  c #5F6116",
"e  c #636417",
"r  c #636418",
"t  c #686419",
"y  c #676A18",
"u  c #6C6D19",
"i  c #726416",
"p  c #746C18",
"a  c #7B6E19",
"s  c #6E721A",
"d  c #727516",
"f  c #767912",
"g  c #72751B",
"h  c #79721A",
"j  c #76791E",
"k  c #787A1F",
"l  c #747626",
"z  c #7A7720",
"x  c #7B7A22",
"c  c #74762C",
"v  c #767929",
"b  c #787B2A",
"n  c #737632",
"m  c #767933",
"M  c #7A7C42",
"N  c #881E07",
"B  c #85280C",
"V  c #992104",
"C  c #853E0C",
"Z  c #9D3708",
"A  c #8E3E15",
"S  c #B12F04",
"D  c #BE3303",
"F  c #BB3E07",
"G  c #C13704",
"H  c #C23804",
"J  c #8E4D0F",
"K  c #91440A",
"L  c #8A5210",
"P  c #845E14",
"I  c #9C5E13",
"U  c #A94A0D",
"Y  c #BD4508",
"T  c #B34C0D",
"R  c #BA550E",
"E  c #A85913",
"W  c #B65C11",
"Q  c #806417",
"!  c #866C18",
"~  c #956515",
"^  c #996F17",
"/  c #8A7319",
"(  c #97731A",
")  c #A96C16",
"_  c #BC6714",
"`  c #A47D1E",
"'  c #B84B26",
"]  c #847C25",
"[  c #857928",
"{  c #8A7D29",
"}  c #A8642A",
"|  c #B07C33",
" . c #C94707",
".. c #CA4807",
"X. c #CC520B",
"o. c #D65F0C",
"O. c #DB6A0F",
"+. c #C26E13",
"@. c #CA7A1B",
"#. c #C14220",
"$. c #CA5C22",
"%. c #867542",
"&. c #A57B65",
"*. c #C76344",
"=. c #7D8160",
"-. c #8A8327",
";. c #8C8229",
":. c #99892E",
">. c #9B8532",
",. c #A68B26",
"<. c #B18522",
"1. c #AE9227",
"2. c #BF9628",
"3. c #A48439",
"4. c #AA9236",
"5. c #B19A3B",
"6. c #B3A230",
"7. c #E4851B",
"8. c #E08C1F",
"9. c #D39125",
"0. c #C79A33",
"q. c #D29F32",
"w. c #E89524",
"e. c #ECA42C",
"r. c #F1AE2F",
"t. c #F3B534",
"y. c #F4BA36",
"u. c #F4BD3B",
"i. c #F6C23B",
"p. c #F9C73B",
"a. c #828246",
"s. c #848456",
"d. c #86835B",
"f. c #B3A953",
"g. c #8D8463",
"h. c #918D69",
"j. c #868D78",
"k. c #989177",
"l. c #FCD448",
"z. c #FEDB4B",
"x. c #F4C65F",
"c. c #FFDF54",
"v. c #FFE15A",
"b. c #FBD568",
"n. c #FDDD70",
"m. c #FFE364",
"M. c #FFE673",
"N. c #FFE77C",
"B. c #8D9485",
"V. c #9C9986",
"C. c #F6CD8B",
"Z. c #F9D386",
"A. c #F7D980",
"S. c #FCDF91",
"D. c #FFE986",
"F. c #FFEA8B",
"G. c #FFEB91",
"H. c #FFEEA1",
"J. c #FEECAF",
"K. c #FBE2BA",
"L. c #FFF1B3",
/* pixels */
"g g g g g g g g g g g g g g g g g g g g s l g g g g g g g g g g ",
"g g g g g g g g g s g g g g g g s g g g d s s d g g g g g g s g ",
"g g g g g g g g g g g g g g g g g g g g g g j d g g g g g g g g ",
"g g g g d g g g g g g g g g u g g g g g g g g j j g g g g g g g ",
"g g g g g g g g g g g g g g $ e g e 6 d d j g l f s j j g g d g ",
"g g g g g g g d g g g g g g $ 6 u o   w g g g m B.v j g g g g g ",
"g g g g g g g g g g j g j j 4 s 6 .   y g d l j.B.v s g g g g g ",
"g g g g g g g g g g j j j j w g $ . % u g g s n n d g g g g g g ",
"g g g g g g g g g a Q Q p u u s + + y u g g g g g g 7 u g j s g ",
"s g g g g g g g g P V * P g 0 # + e g g g g g g g g w y g x j g ",
"g g g g g g g g d P V N L g 5 O + p g g g g g g g g g g g j j s ",
"g g g d x k s g g a J J i u % O K O.+./ g g g g g g g g s s j g ",
"g g g z >.>.:.-.g g g d r y % C O.O.O._ j g g j g g g g j s s g ",
"g g s z [ { 5.{ g g g g g y + C O.O.O.R n v g g m g g g s j g g ",
"g g g g s g [ g g g g g h U S F X.O.O.} g.&.%.l k.l g g g g g g ",
"g g g g g g s g g g g g ! D H .. . .i j ' H #.} c g g g g g g g ",
"g g g g g g g g g g ^ ) ! D G  . .Z 3 ~ G G H T g g g g g g g g ",
"g g g g g g g g g ( o.o.W 1 N B 1 , i ! F G H T g g g g g g d g ",
"g g g g g g g g g ^ o.o.R = & * ) 8.8.( I T T ~ g g g g g g g g ",
"g g g g g g g g g g ) T - = P 0.y.y.w.@.q g g g g g g g g g g g ",
"g g g g j j s g g g , < B Y q.p.u.Z.y.@.q j g g g g g g g g g g ",
"g g g j g g g g g g 7 U X.O.t.u.i.K.i.w.9.2.g s g g g g g g g g ",
"g g g s s g s g g l 7 A 7.w.u.b.n.S.p.t.r.r.,.g g g g j j k g g ",
"g g g g g g g g g 8 ; 2 e.i.b.D.D.N.z.y.r.r.0.z g g k g j k g g ",
"g g g g g g g g t ; > *.C.b.F.F.N.M.z.l.r.<.w s g g -.4.;.j g g ",
"g g g g g g g g t : > X.x.J.L.H.G.M.c.l.7.@ X 8 j g ] :.{ { z g ",
"g g g j g g g g u 5 9 $.A.F.H.H.F.m.v.i._ & @ 3 k j g j :.3.[ g ",
"g g j f f g g g g g g | F.D.F.F.c.l.z.w.E : , g g g g ;.4.{ g g ",
"g g a.h.a.g j j g j g b f.f.f.f.5.1.6.` i t u g d g g ] ;.g g g ",
"g g s.V.s.d m b g g g g g g g g s l k g k l g g g g g g s g g g ",
"g g c M c n h.k.c l g g g g g g g g g -.>.x g g g g g g g j k k ",
"g g g g g s =.=.d.B.d g g g g g g g g g g g g g g g g g k l g g "
};
