/* XPM */
static char *result[] = {
/* columns rows colors chars-per-pixel */
"32 32 165 2 ",
"   c #170A06",
".  c #1E1607",
"X  c #250D0A",
"o  c #2B0F0B",
"O  c #33120D",
"+  c #3E1710",
"@  c #32240E",
"#  c #3B330E",
"$  c #4E180F",
"%  c #571B0E",
"&  c #431B12",
"*  c #641A0D",
"=  c #5E290C",
"-  c #492B12",
";  c #4D3413",
":  c #6D270F",
">  c #79220B",
",  c #603F0F",
"<  c #612D12",
"1  c #6B3910",
"2  c #423B2D",
"3  c #43420E",
"4  c #4D4D11",
"5  c #584B17",
"6  c #545513",
"7  c #5A5718",
"8  c #7A4B0F",
"9  c #614A13",
"0  c #744816",
"q  c #675717",
"w  c #795A15",
"e  c #5F6016",
"r  c #646617",
"t  c #656817",
"y  c #696418",
"u  c #6B6C1A",
"i  c #7D6316",
"p  c #7A6817",
"a  c #766B18",
"s  c #7A6E1A",
"d  c #6E721A",
"f  c #727516",
"g  c #767912",
"h  c #72751B",
"j  c #78741D",
"k  c #76791E",
"l  c #797A1F",
"z  c #747626",
"x  c #7B7A21",
"c  c #787926",
"v  c #74772B",
"b  c #767929",
"n  c #737632",
"m  c #767A33",
"M  c #7B7D31",
"N  c #776649",
"B  c #797E46",
"V  c #77655E",
"C  c #8A1F07",
"Z  c #882608",
"A  c #982506",
"S  c #833D0C",
"D  c #983708",
"F  c #9C3914",
"G  c #A12304",
"H  c #AF2502",
"J  c #B62600",
"K  c #A93104",
"L  c #B73105",
"P  c #BF3403",
"I  c #AD3011",
"U  c #C13704",
"Y  c #82470E",
"T  c #99510E",
"R  c #8B4212",
"E  c #845B1B",
"W  c #AB480A",
"Q  c #B8430A",
"!  c #BA580E",
"~  c #A24A10",
"^  c #BF5F10",
"/  c #8C6515",
"(  c #89651C",
")  c #946315",
"_  c #966D17",
"`  c #8D7119",
"'  c #967B1C",
"]  c #A66416",
"[  c #BD6416",
"{  c #975C31",
"}  c #AA4936",
"|  c #847C25",
" . c #857928",
".. c #8A7D29",
"X. c #8B6B31",
"o. c #C64908",
"O. c #CC4B08",
"+. c #C4530C",
"@. c #CA560B",
"#. c #D25A0B",
"$. c #D47D06",
"%. c #D06816",
"&. c #E47A05",
"*. c #E37A13",
"=. c #9C7355",
"-. c #7D8160",
";. c #B2821D",
":. c #8A8327",
">. c #8C8229",
",. c #99892E",
"<. c #9B922B",
"1. c #9B8532",
"2. c #AD8325",
"3. c #BF8E25",
"4. c #A68839",
"5. c #AA9236",
"6. c #B29839",
"7. c #B3A332",
"8. c #E68F1F",
"9. c #E9901F",
"0. c #DC9A2A",
"q. c #E58C20",
"w. c #EC9C25",
"e. c #E7A22C",
"r. c #EEA42A",
"t. c #F0A72C",
"y. c #F2B62E",
"u. c #F3B335",
"i. c #F4B934",
"p. c #F6BF3A",
"a. c #F8C63D",
"s. c #828246",
"d. c #848456",
"f. c #86835B",
"g. c #918B68",
"h. c #868D78",
"j. c #989177",
"k. c #B3AA62",
"l. c #B3AC69",
"z. c #B3AE74",
"x. c #CF9C5E",
"c. c #E19A4E",
"v. c #E8B243",
"b. c #FCD546",
"n. c #FEDD4C",
"m. c #FCD965",
"M. c #F8CC70",
"N. c #FEE37E",
"B. c #8D9485",
"V. c #9C9986",
"C. c #A39C9B",
"Z. c #EFBA9F",
"A. c #CCC096",
"S. c #F4CC92",
"D. c #FFE683",
"F. c #FEEA9E",
"G. c #DAD1A4",
"H. c #F5CDA4",
"J. c #F7D6B8",
"K. c #FEEAA6",
"L. c #FFF1B4",
"P. c #FFF3BE",
"I. c #FFF4C2",
"U. c #FFF7CE",
"Y. c #FFF7D0",
/* pixels */
"h h h h h h h h h h h h h h h h h h h d d k k d h h h h h h d h ",
"h h h h h h h h h h h h h h h h h h h h h d d h h h h h h h h h ",
"h h h h h h h h h h h h h h h h h h h h h h h d h h h h h h h h ",
"h h h h h h h h h h h h h t r d h h h h h h h k k h h h h h h h ",
"h h h h h h h h h h h h h u 4 h t 6 r h h h h c g d j h h h h h ",
"h h h h h f h h h h h h h u d h 4   3 h h h h m B.b k h h h h h ",
"h h h h h h h f h h k h h k h h .   t h h h h h.B.c h h h h h h ",
"h d h h h h h h d i 8 j k k d 7   6 h h d h h n n h 6 d h h f h ",
"h h h h h h h h p Z % S d d 6 o @ d h h h h h h d h u h h h k d ",
"h h h h h h h h a Z C Y d d # o 8 _ h h h h h h h h h h h l k h ",
"h h h h h h h h h p w a 4 e @ D #.#.[ h h h h h h h h h h k k d ",
"h h h f x l d h h h h u 6 r X @.#.#.#.` h h h d h h h h h d k h ",
"h h h x 1.1.,.>.h h h h u r X W #.#.+.q l h k k h h h h h h d h ",
"h h f z  ...6...h h h h h 4 O D O.^ E u m b d k m h h h h h h h ",
"h h h h u h | h h h h f q > A U U ) f B =.} { b j.z h h h h h h ",
"h h h h h h h h h h h f 1 J J U P ) h s I H H X.v h h h h h h h ",
"h h h h h h h h f _ ] ( * J J A = , j / H H H ( h h h h h h h h ",
"h h h h h h h h h +.O.o.$ C G ~ *.&.[ j T H K s h h h h f h h h ",
"h h h h h h h h h ! O.Q + + E 0.w.Z.8.` s i i h h h h h h h h h ",
"h h h h h h h h d w : $ + 0 e.r.r.J.$.9 h h h h h h h h h h h h ",
"h h h h c h h d d 5 & > L [ t.a.y.J.y.3.;.' h h h h h h h h h h ",
"h h h l h d h h h u q A U %.b.n.b.a.p.w.9.9.' h h h h h h h h h ",
"h h h h d h h h z y < R q.u.n.n.n.a.i.w.9.9.2.h h h h k k l h h ",
"h h h h h h h h d 5 C.x.i.m.D.N.F.F.K.S.c.2.4.l h h l h l l h h ",
"h h h h h h h d ; & V H.M.L.Y.Y.I.P.I.I.G.7 u h h h :.5.:.z h h ",
"h h h h h h d d - & F v.m.P.Y.Y.I.U.I.I.I.2 # h k h | ,.>...l h ",
"h h h h h h h h u 7 _ n.n.L.U.Y.Y.Y.I.I.A.& # l l h h k 1.4.| h ",
"h h k g f k h h h h x n.n.D.K.L.U.U.I.P.N ; u h h h h :.5...h h ",
"h h s.g.-.f k k h k h <.7.7.k.l.l.z.z.z.M h h h h d h | >.j d h ",
"h h d.V.s.g m b d k h h h h h h h h l l h c h h h h h d d h d k ",
"h h v B v v g.j.z z h h h h h h h h h :.,.c h h h h h h k h l l ",
"h h h d k d -.-.f.B.f h h h h h h h h h h h h h h h h h x k h h "
};
