/* XPM */
static char *result[] = {
/* columns rows colors chars-per-pixel */
"32 32 151 2 ",
"   c black",
".  c #1C0600",
"X  c #081001",
"o  c #151D1F",
"O  c #240900",
"+  c #1D2E07",
"@  c #362603",
"#  c #2A3508",
"$  c #363407",
"%  c #3D3A14",
"&  c #272C2D",
"*  c #582100",
"=  c #41330D",
"-  c #5B3206",
";  c #593907",
":  c #622700",
">  c #6B2C01",
",  c #7F3703",
"<  c #783A04",
"1  c #7F3A08",
"2  c #483C21",
"3  c #2E450F",
"4  c #284E0E",
"5  c #3B430B",
"6  c #304810",
"7  c #3D6616",
"8  c #4E4D0F",
"9  c #5D440A",
"0  c #4F5110",
"q  c #555812",
"w  c #5A5D13",
"e  c #5B581F",
"r  c #7A4411",
"t  c #456516",
"y  c #5E6015",
"u  c #5F611E",
"i  c #50741A",
"p  c #567B1C",
"a  c #636516",
"s  c #6E661E",
"d  c #6B6D1A",
"f  c #6E721A",
"g  c #727516",
"h  c #767912",
"j  c #72751B",
"k  c #76791E",
"l  c #787A1F",
"z  c #4A4025",
"x  c #5E5B26",
"c  c #74452C",
"v  c #626020",
"b  c #747625",
"n  c #7A7720",
"m  c #7B7A21",
"M  c #74772B",
"N  c #767928",
"B  c #787B2A",
"V  c #727633",
"C  c #767933",
"Z  c #7A7C42",
"A  c #616262",
"S  c #717272",
"D  c #843B04",
"F  c #8C3C02",
"G  c #923E00",
"H  c #994304",
"J  c #944508",
"K  c #9C460C",
"L  c #9B490E",
"P  c #A54A00",
"I  c #AC4E0A",
"U  c #B3520C",
"Y  c #BD590D",
"T  c #A44B12",
"R  c #AC5517",
"E  c #B65610",
"W  c #B15819",
"Q  c #A75124",
"!  c #BD5D22",
"~  c #827727",
"^  c #847C26",
"/  c #877B29",
"(  c #8A7D29",
")  c #B96331",
"_  c #C55B00",
"`  c #C45E13",
"'  c #D2640F",
"]  c #CE6316",
"[  c #D16517",
"{  c #D66816",
"}  c #D36719",
"|  c #D3691C",
" . c #DB6C1C",
".. c #E3711E",
"X. c #E97419",
"o. c #CC6725",
"O. c #DF7122",
"+. c #CF6D31",
"@. c #E37221",
"#. c #E97623",
"$. c #EC7825",
"%. c #EB792C",
"&. c #E67833",
"*. c #E87A34",
"=. c #E17B3C",
"-. c #865B42",
";. c #896D4E",
":. c #8B754E",
">. c #9E795E",
",. c #A5634C",
"<. c #B66541",
"1. c #C46C41",
"2. c #D97C47",
"3. c #7D8160",
"4. c #8A8327",
"5. c #8C8229",
"6. c #90842A",
"7. c #99892E",
"8. c #9B8532",
"9. c #A48439",
"0. c #AA9236",
"q. c #B29839",
"w. c #828246",
"e. c #848456",
"r. c #918867",
"t. c #938C6C",
"y. c #868D78",
"u. c #93917B",
"i. c #AE8264",
"p. c #DC814C",
"a. c #C6865F",
"s. c #DD8553",
"d. c #E78448",
"f. c #E18753",
"g. c #C68A65",
"h. c #C39572",
"j. c #D49A74",
"k. c #868787",
"l. c #8D9485",
"z. c #9C9986",
"x. c #B4A29F",
"c. c #A2A4A5",
"v. c gray71",
"b. c #E3AE87",
"n. c #F9AF81",
"m. c #F3B084",
"M. c #F8B082",
"N. c #CDB3AC",
"B. c #D2B9B2",
"V. c #C7C3C2",
"C. c #C8C9C9",
/* pixels */
"j j j j j j j j j k j f f j j j j j j j j j j j j j j j j j j j ",
"j j j j j j j j j j f j j j j j j j j j j j j j j j j j g j j j ",
"j j j j j j j j j j j j j j j j j j j j j f j j j j j j j j j j ",
"j j j j j j j j k j j j j j j j j j j j j j j j j j j j j j j j ",
"j j j j j k j h b j j j j j j j j j j j j j j j j j g j j j j j ",
"j j j j j k b l.V j j j j j j j j j j j j j j j j j j j j j j j ",
"j j j j j j b l.y.j j j j j j j j j k j j k k j j j j j j j j j ",
"j j j j j j j C V j j j j j j j j j j k k k j j j j j j j j j j ",
"j j j j j j j j j j j j j j j j j j j f j j j j j j j j j j j j ",
"j j l j j j j j j j j j j j j j w X f j j j j j j j j j j j j j ",
"f k k j j j j j j j j j j j j q t + j j j j j j j j j j j j j j ",
"j k j j j j j j j j j j j j j 5 i w j j j j j j f f l m g j j j ",
"j f j j j j j j j k j k k j y p 3 y j j j j j j 5.8.8.8.l j j j ",
"j j j j j j j C j f x z v j # p 6 w d 2 = e f j ( q./ ~ l j j j ",
"j j j j j j b t.u >.j.n.a.1 r 7 4 :.i.M.=.g.* w f ^ j j j j j j ",
"j j j j j j j ;.b.s.=.{ ] ..@.| | d.p.' #...] D ; g j j j j j j ",
"j j j j j j % m.{ $.$.} ] #.$.$. .$.} ] $.$.$.[ I $ j j j j j j ",
"g j j j j a h.f.#. ...[ | $.@.#.$.$.@.]  .$.$. .` < a j j j j j ",
"j j j j j w b.{ $.$. .[ O.$.$.$.#.$.#.] [ $. .@.] F w j j j j j ",
"j j j j j :.) @.@. .| ]  ...$.$.] @. .] [ $.$.#.[ U 9 j j j j j ",
"j j j j j >.2.#.<.K H ]  .#.$.$.#.1.K H ] #.$.$.} ] : j j j j j ",
"j j j j d -.+.X.B.o   H ] #.$.$...N.&   J  .$.$.| ] : f k k j j ",
"j k l j j c o.@.P . > ` o.&.%.%.*.P O > `  .$. .| ` * f j f j j ",
"j j k l l w F | O.I ` ,.c.C.k.S V._ U ` ] $.$.@.[ F w j j j j j ",
"j j k 5.0.s F  .$.[ ] Y x.A v.V.G @.} ] } $.#.@.[ F w j j j j j ",
"j n / / 7.s D [ #.| [ ] ! T Q Q  .$.] ] #.$.#.@.] D a j j j j j ",
"j / 9.7.j j y , U  . .]  .......#.$.[ ] #.@.} U , w j j j j j j ",
"j j / 0.6.j j a @ - H ` ] @.$.$. . .] | O.E - @ a j j g h k j j ",
"j j k 5.^ j f j j f 0 8 D L W W R L J 0 0 0 j j k j j w.t.w.k g ",
"j j j f j j j j j j k k f f d f d d d k j j j j B C g e.z.e.j j ",
"l k j k j j j j j j ~ 7.4.k j j j j f k j j b N u.r.C M Z N j j ",
"j j k l j j j j j j j b j f j j f j j j j g l.e.3.3.j j j j j j "
};
