/* XPM */
static char *result[] = {
/* columns rows colors chars-per-pixel */
"32 32 144 2 ",
"   c black",
".  c #1C0600",
"X  c #081001",
"o  c #151D1F",
"O  c #240900",
"+  c #1D2E07",
"@  c #362603",
"#  c #2A3508",
"$  c #363407",
"%  c #3D3A14",
"&  c #272C2D",
"*  c #582100",
"=  c #5B3206",
"-  c #593907",
";  c #622700",
":  c #6B2C01",
">  c #7F3703",
",  c #783A04",
"<  c #7F3A08",
"1  c #483C21",
"2  c #2E450F",
"3  c #284E0E",
"4  c #3B430B",
"5  c #304810",
"6  c #3D6616",
"7  c #4E4D0F",
"8  c #5D440A",
"9  c #4F5110",
"0  c #555812",
"q  c #5A5D13",
"w  c #7A4411",
"e  c #456516",
"r  c #5E6015",
"t  c #5F611E",
"y  c #50741A",
"u  c #567B1C",
"i  c #636516",
"p  c #6E661E",
"a  c #6B6D1A",
"s  c #6E721A",
"d  c #727516",
"f  c #767912",
"g  c #72751B",
"h  c #76791E",
"j  c #787A1F",
"k  c #4A4025",
"l  c #5E5B26",
"z  c #74452C",
"x  c #747625",
"c  c #7A7720",
"v  c #7B7A21",
"b  c #74772B",
"n  c #767928",
"m  c #787B2A",
"M  c #727633",
"N  c #767933",
"B  c #7A7C42",
"V  c #616262",
"C  c #717272",
"Z  c #843B04",
"A  c #8C3C02",
"S  c #923E00",
"D  c #994304",
"F  c #944508",
"G  c #9C460C",
"H  c #9B490E",
"J  c #A54A00",
"K  c #AC4E0A",
"L  c #AF510C",
"P  c #B3520C",
"I  c #BD590D",
"U  c #A44B12",
"Y  c #AC5517",
"T  c #B65610",
"R  c #B15819",
"E  c #A75124",
"W  c #BD5D22",
"Q  c #827727",
"!  c #847C26",
"~  c #877B29",
"^  c #8A7D29",
"/  c #B96331",
"(  c #C55B00",
")  c #C45E13",
"_  c #D2640F",
"`  c #CE6316",
"'  c #D16517",
"]  c #D66816",
"[  c #D3691C",
"{  c #DB6C1C",
"}  c #E3711E",
"|  c #E97419",
" . c #CC6725",
".. c #DF7122",
"X. c #CF6D31",
"o. c #E37221",
"O. c #E97623",
"+. c #EC7825",
"@. c #EB792C",
"#. c #E87A34",
"$. c #E17B3C",
"%. c #865B42",
"&. c #8B754E",
"*. c #9E795E",
"=. c #A5634C",
"-. c #B66541",
";. c #C46C41",
":. c #D97C47",
">. c #7D8160",
",. c #878026",
"<. c #8C8229",
"1. c #99892E",
"2. c #9B8532",
"3. c #A48439",
"4. c #AA9236",
"5. c #B29839",
"6. c #828246",
"7. c #848456",
"8. c #86835B",
"9. c #938C6C",
"0. c #868D78",
"q. c #93917B",
"w. c #A78063",
"e. c #AE8264",
"r. c #DD8553",
"t. c #E78448",
"y. c #E18753",
"u. c #C68A65",
"i. c #C39572",
"p. c #D49A74",
"a. c #868787",
"s. c #8D9485",
"d. c #9C9986",
"f. c #B4A29F",
"g. c #A2A4A5",
"h. c gray71",
"j. c #DEA780",
"k. c #F9AF81",
"l. c #F3B084",
"z. c #F8B082",
"x. c #CDB3AC",
"c. c #D2B9B2",
"v. c #C7C3C2",
"b. c #C8C9C9",
/* pixels */
"g g g g g g g g g g d g g g g g g g g g s g h g g g g g g g g g ",
"g g g g g g g g g g g g g g g g g g g g g s s g g g g g g g g g ",
"g g g g g g g g g g g g g g g g g g g g g g g s g g g g g g g g ",
"g g g g g g g g g g g g g g g g g g g g g g g c g g g g g g g g ",
"g g g g g g g g g g g g g g g g g g g g g g g c f g h g g g g g ",
"g g g d g g g g g g g g g g g g g d g g g g g M q.n h g g g g g ",
"g g g g g g g g g g h h h x g g g g g g g g x 0.s.n g g g g g g ",
"g g g g g g d g d g h h h g g g g g g g g g s M M g g g g g g g ",
"g g g d g g g g g g s g s g g g g g g g g g g g s g g g g h g g ",
"g g g g g g g g d g g g g s X q g g g g g g g g g g g g g h h g ",
"g g g g g g g g g g g g g g + e 0 g g g g g g g g g g g g h h s ",
"g g g g ! j s g g g g g g g q y 4 s g g g g g g g g g g s s h g ",
"g g g c ^ 3.1.<.g g g g g g r 2 u r g h j g g j g g g g h g s g ",
"g g g h Q ^ 5.^ g g l $ 1 a r 5 u # s i k l s g N g g g g g g g ",
"g g g g g g ! a r * u.$.k.e.&.3 6 w < u.z.p.*.t 9.n g g g g g g ",
"g g g g g g g - Z ` } O._ :.t.[ [ o.o.` [ $.r.j.&.s g g g g g g ",
"g g g g g g $ K ` +.+.O.` ' +.{ +.+.O.` ' +.+.] l.% g g g g g g ",
"g g g g g i , ) ..+.+.{ ` } +.+.O.o.O.{ ` o.{ +.y.i.i g g g g g ",
"g g g g g q A ' o.{ +.' ` O.O.O.+.+.+.{ ' { @.+.{ p.r g g g g g ",
"g g g g s 8 L ' O.+.+.' ' { o.' +.+.o.{ ` { { o.} / &.g g g g g ",
"g g g g s ; ` { +.+.+.` D G ;.O.+.+.O.{ ` D G -.o.:.w.s g g g g ",
"g g h h s ; ) [ +.+.{ S   & x.} +.+.O.' D   o c.| X.%.s g g g g ",
"g g g s s ; ) { { +.{ ) : O J #.@.@.#. .) : . J o. .z s g c h g ",
"g g g g g q A ' o.+.+.` ) K ( v.C a.b.g.=.) K { [ F r g v h g g ",
"g g g g g q A ` o.+.+.' ` ' o.S v.h.V f.I ' ' +.{ A p 4.<.h h d ",
"g g g g g r Z ` o.O.+.O.` ' O.{ E E U W ` ' [ O.' Z a 1.^ ~ c g ",
"g g g h g g r > P ' o.+.` ' +.+.{ o.} [ ' { { P > r g h 2.3.~ g ",
"g g h f d g g i @ - T ..[ ` { { +.+.o.` ) D = @ i g g <.4.~ g g ",
"g g 6.9.6.g g h g s 9 9 9 F H Y R R H Z 7 9 s g g s g ! <.h g g ",
"g g 7.d.7.d N m g g g g g a a a a a g s h v g g g g g s s g g g ",
"g g b B b b 9.q.b x g g g g g g g g h ,.2.v g g g g g g h g h h ",
"g g g g g d >.>.8.s.g g g g g g g g g g g g g g g g g g v h g g "
};
