/* XPM */
static char *result[] = {
/* columns rows colors chars-per-pixel */
"32 32 145 2 ",
"   c black",
".  c #1C0600",
"X  c #151D1F",
"o  c #240900",
"O  c #022A06",
"+  c #182705",
"@  c #362603",
"#  c #352A03",
"$  c #2E3809",
"%  c #3B3508",
"&  c #393808",
"*  c #272C2D",
"=  c #5B3205",
"-  c #622700",
";  c #6B2C01",
":  c #7E3703",
">  c #463C20",
",  c #3B410C",
"<  c #2F4610",
"1  c #3A5614",
"2  c #4E4D0F",
"3  c #48580C",
"4  c #5A510F",
"5  c #4F5110",
"6  c #405E15",
"7  c #585611",
"8  c #565913",
"9  c #595B13",
"0  c #4A6415",
"q  c #5E6115",
"w  c #557A1C",
"e  c #587F1E",
"r  c #616315",
"t  c #676917",
"y  c #6E661E",
"u  c #6C6D19",
"i  c #756E1F",
"p  c #6E721A",
"a  c #727516",
"s  c #767912",
"d  c #72751B",
"f  c #76791E",
"g  c #787A1F",
"h  c #724329",
"j  c #635C28",
"k  c #676426",
"l  c #7A7720",
"z  c #7B7A21",
"x  c #74772B",
"c  c #767928",
"v  c #6A6B30",
"b  c #727633",
"n  c #757932",
"m  c #7A7C42",
"M  c #616262",
"N  c #717272",
"B  c #803704",
"V  c #843B04",
"C  c #8D3C02",
"Z  c #923E01",
"A  c #964104",
"S  c #9A4304",
"D  c #9C460C",
"F  c #93490D",
"G  c #9B490E",
"H  c #A54A00",
"J  c #AC4E0A",
"K  c #AF500A",
"L  c #B3520C",
"P  c #BD590D",
"I  c #A44B12",
"U  c #AC5517",
"Y  c #B65610",
"T  c #B15819",
"R  c #BA5E1B",
"E  c #9F5227",
"W  c #98552F",
"Q  c #A75124",
"!  c #BD5D22",
"~  c #827727",
"^  c #877B29",
"/  c #8A7D29",
"(  c #C55B00",
")  c #C55E13",
"_  c #D0630F",
"`  c #C66015",
"'  c #CE6316",
"]  c #D16517",
"[  c #D16619",
"{  c #D4691A",
"}  c #DB6C1D",
"|  c #E57219",
" . c #CD6625",
".. c #DF7122",
"X. c #C06632",
"o. c #D36F31",
"O. c #D3733B",
"+. c #E47321",
"@. c #E97624",
"#. c #EC7825",
"$. c #E8772B",
"%. c #EB792C",
"&. c #E67833",
"*. c #E87A34",
"=. c #946B51",
"-. c #977955",
";. c #997B58",
":. c #A5634C",
">. c #BE6942",
",. c #A77151",
"<. c #C56C41",
"1. c #E37E41",
"2. c #7D8160",
"3. c #8A8327",
"4. c #8C8229",
"5. c #99892E",
"6. c #9B8532",
"7. c #A48439",
"8. c #A69134",
"9. c #AD9338",
"0. c #828246",
"q. c #848456",
"w. c #86835B",
"e. c #918D69",
"r. c #868D78",
"t. c #93917B",
"y. c #AD8567",
"u. c #B68D6E",
"i. c #EA8345",
"p. c #C89873",
"a. c #E09467",
"s. c #868787",
"d. c #8D9485",
"f. c #9C9986",
"g. c #B4A29F",
"h. c #A2A4A5",
"j. c gray71",
"k. c #EAAD84",
"l. c #E7B189",
"z. c #EAB38B",
"x. c #F3B084",
"c. c #CDB3AC",
"v. c #CCB7B1",
"b. c #C7C3C2",
"n. c #C8C9C9",
/* pixels */
"d d d d d d d d d d d d d d d d d d d a p d f d d d d d d d d d ",
"d d d d d d d d d d d d d d d d d d d d d p p d d d d d d d d d ",
"d d d d d d d d d d d d d d d d d d d d d d d p d d d d d d d d ",
"d d d d d d d d d d d d d d d d d d d d d d d l d d d d d d d d ",
"d d d d d d a d d d d d d d d d d d d d d d d l s d d d d d d d ",
"d d d d d d d d d d d d d d d d d a d d d d d b d.c f d d d d d ",
"d d d d d d d d d d f d d f d d d d d d d d c r.d.c d d d d d d ",
"d d d d d d a d d d f f f d r p d d d d d a p b b d d d d d d d ",
"d a d d d d d d d d d d p p + , d d d d d d d d d d d d d d d d ",
"d d d d d d d d d d d d d p $ e & d d d d d d d a d d d d f f d ",
"d d d d a d d d d d d d p d q 6 0 t d d d d d d d d d d d d f d ",
"d d d p ~ g p d d d p u p d q < w 9 d u u a d d d d d d d d d d ",
"d d d l 6.6.6.3.d 8 ;.W u.j 3 1 e O 4 ,.u.-.8 f d d d d d d p d ",
"d d d f ~ ^ 9.i # A X.$.i.k.p.# % R ` o.i.a.z.> v d d d d d d d ",
"d d d d d d y : K } #.@.` _ #.@.#.#.@.' ] +.} x.u.t d d d d d d ",
"d d d d d d % J ' #.#.#.' ] #.| #.#.@.' [ #.%.| z.% d d d d d d ",
"d d d a d 9 C ' @.#.#.] ' @.#.#.#.@.#.} ' } @.#.} l.8 d d d d d ",
"d d d d d 8 C ' +.} #.] ' @.#.@.@.@.#.} ] } +.#.} l.8 p d d d d ",
"d d d d d 7 S [ @.@.#.] ] @.+.] #.#.#.} ] } #.@.} E k c d d d d ",
"d d d f d - ) } #.#.#.[ ] } @.+.#.$.| ..] { } } +.1.y.p d d d d ",
"a d d l p - ` { #.#.} ` S D <.#.#.#.@.' ' S D >.@. .h u d d d d ",
"d d d d p - ' { +.#.} A   * c.| #.#.@.] S   X v.| O.=.p d d d d ",
"d d d p p - ` { #.#.} ) - o H &.$.%.*. .) ; . H +.) - d f g d d ",
"d d d d d 9 C ' +.#.#.' ) K ( b.N s.n.h.:.) J ..} C q f f f d d ",
"d d d d d 9 C ' +.#.#.' ' [ +.Z b.j.M g.P ' ] #.{ C y 9.4.f f a ",
"d d d d d q V ` +.@.#.@.' ] @.} Q Q I ! ] ' { @.] V u 5./ ^ l d ",
"d d d l d d q : L ' @.#.' ] #.#.....| { ' ] } L B q d d 6.7.^ d ",
"d d f s d f d r # = Y ..{ ' } } #.#.@.} ) A = @ r f d 3.8./ d d ",
"d f 0.e.0.d f f d p 5 5 5 F G U T T G V 2 5 u d p d p 3.4.f d d ",
"d d q.f.q.a n c d p d d p p u u u u d u f l d d d d d p p d d d ",
"d d x m x x e.t.x c d d d d d d d d l 3.6.z d d d d d d f d f g ",
"d d d d d a 2.2.w.d.a d d d d d d d p p f d d d d d d p z f d d "
};
