/* XPM */
static char *result[] = {
/* columns rows colors chars-per-pixel */
"32 32 137 2 ",
"   c black",
".  c #371300",
"X  c #3E1600",
"o  c #1D2D07",
"O  c #373808",
"+  c #393909",
"@  c #3D3A14",
"#  c #401700",
"$  c #582100",
"%  c #5F3103",
"&  c #5C3A07",
"*  c #453818",
"=  c #622700",
"-  c #612D02",
";  c #6F2D00",
":  c #653605",
">  c #783A04",
",  c #4D2E24",
"<  c #483C21",
"1  c #553B34",
"2  c #6B3925",
"3  c #2F440C",
"4  c #314A11",
"5  c #3D6616",
"6  c #464B0E",
"7  c #494E0F",
"8  c #534C0E",
"9  c #4F5110",
"0  c #505210",
"q  c #5A5C13",
"w  c #7A4411",
"e  c #5E6014",
"r  c #51751A",
"t  c #567C1C",
"y  c #636616",
"u  c #6A641C",
"i  c #6A6D19",
"p  c #6E721A",
"a  c #727516",
"s  c #767912",
"d  c #72751B",
"f  c #75791E",
"g  c #787A1F",
"h  c #5E5B26",
"j  c #747625",
"k  c #7A7720",
"l  c #7B7A21",
"z  c #74772B",
"x  c #767928",
"c  c #787B2A",
"v  c #727633",
"b  c #767933",
"n  c #404141",
"m  c #645C5B",
"M  c #7A7C42",
"N  c #7A7E58",
"B  c #686868",
"V  c #853901",
"C  c #8C3C02",
"Z  c #8E420A",
"A  c #974203",
"S  c #98470D",
"D  c #9A490D",
"F  c #A24907",
"G  c #AB4E06",
"H  c #A44B0B",
"J  c #A94D0A",
"K  c #BA5300",
"L  c #B9570F",
"P  c #BC580F",
"I  c #A14D11",
"U  c #A75214",
"Y  c #AF5718",
"T  c #B15919",
"R  c #827727",
"E  c #847C26",
"W  c #877B29",
"Q  c #8A7D29",
"!  c #C35900",
"~  c #C55E13",
"^  c #C55F19",
"/  c #D6670A",
"(  c #CE6416",
")  c #D16617",
"_  c #D66816",
"`  c #D5691C",
"'  c #DB6D1D",
"]  c #E87314",
"[  c #E5721C",
"{  c #D27239",
"}  c #E47321",
"|  c #EA7623",
" . c #EC7825",
".. c #E17B3C",
"X. c #8C5D4F",
"o. c #91694E",
"O. c #89774F",
"+. c #9E795E",
"@. c #B66B4D",
"#. c #D57944",
"$. c #7D8160",
"%. c #8A8327",
"&. c #8C8229",
"*. c #99892E",
"=. c #9B8532",
"-. c #A48439",
";. c #AA9236",
":. c #B29839",
">. c #828246",
",. c #848456",
"<. c #86835B",
"1. c #918867",
"2. c #938C6C",
"3. c #868D78",
"4. c #93917B",
"5. c #AA8263",
"6. c #BD8360",
"7. c #AD8477",
"8. c #DD8553",
"9. c #E78448",
"0. c #C68A65",
"q. c #C39572",
"w. c #D49A74",
"e. c #E49161",
"r. c #8D9485",
"t. c #9C9986",
"y. c #BA968A",
"u. c #B59790",
"i. c #E3AE87",
"p. c #F9AF81",
"a. c #E8B18A",
"s. c #F3B084",
"d. c #F8B082",
"f. c #C4ADA6",
"g. c #E7CCC4",
"h. c #EACCC4",
"j. c #EAD1CA",
/* pixels */
"d d d d d d d d d f f p d d d d d d d d d d d d d d d d d d d d ",
"d d d d d d d d d p p p d d d d a d d d d d d d d d d d a d d d ",
"d d d d d d d d d d d d d d d d d d d d d d d d d d d d d d d d ",
"d d d d d d d d f d d d d d d d d d d d d d d d d d d d d d d d ",
"d d d d d f d s f f d d d d d d d d d d d d d d d d d d d d d p ",
"d d d d d f x 4.b p p d d d d d d d d d d d d d d d d d d d d d ",
"d p d d f p x r.3.j d d d d d d p d f f d f d d a d d d d d d d ",
"d d d d d d p v v d d d d d d d d d d f f f d d d d d d d d d d ",
"d d d d d d d d d d d d d d d d i + p p d d d d d d d d d d d d ",
"d f g d d d d d d d d d d d d i 3 o d d d d d d d d d d d d d d ",
"d f f f d d d d d d d d d d p O t 7 p d d d d d d d d d d d d d ",
"d f p p d d d d d d d d d d e r 4 e d d d d d d p d f l a d d d ",
"d p d d d d d d d d d k k p 6 t 3 y d d d d d d %.=.=.=.g d d d ",
"d d d d d d d b d p h < * i o t 4 q i * + h d d Q :.Q R g d d d ",
"d d d d d d j 2.y +.w.p.e.Z w 5 4 O.5.d...0.$ q p E d d d d d d ",
"d d d d d d p O.i.8...` ( } } ` ` 9.#._ | ' ( V & a d d d d d d ",
"d d d d d d @ s._  . .) ( }  . .}  .( ( |  . .( J O d d d d d d ",
"d d d d d y q.8.|  .} ) '  . . . . .} ( '  . .' ~ > y d d d d d ",
"d d d d d q a.`  .' ' ( '  .} |  . .} ( )  .| } ( C q d d d d d ",
"d d d d d q 6.`  . .' ( '  . . .' } | ( ) | } } ( C q d d d d d ",
"d d d d p 5.#.|  .| ' ( ' '  . .` } | ( )  . . .` ~ - d d d d d ",
"d d d d p o.{ | ! P P ( _ |  . . ./ P P ( |  . .` ~ = p f d d d ",
"d f f d d +.#.] h., # F ) |  . .[ g.1 X D ' |  .` ~ = p d d d d ",
"d d f f d : L ' V   X G / ]  . .] Z   . G [  .' ` P & p d d d d ",
"d d f %.;.u C ` ( V J @.f.j.y.7.g.K V J )  . .} ) C q d d d d d ",
"d k Q E *.u C '  .) ) H m n B B 2 ( ( ( `  . .} ) C q d d d d d ",
"d W -.=.d i : ~ ' ) ) ( y.X.y.u.^ | ) ( |  .' ` P : i d d d d d ",
"d d Q ;.&.d p % A ~ ^ ( ) ) ( ( | | ) (  .' ( A - p d d s d d d ",
"d d f &.E d d i 0 8 ; S U T T T I I D U Y Z 8 9 p d s $.2.>.d d ",
"d d d p d d d d d d i d p p i i i i i i i i d p c x a <.t.,.d d ",
"g f d f d d d d d d l =.%.f d d d d d d d d j z 4.1.c c M c d d ",
"d d f f d d d d d d d j d p d d d d d d d a r.<.N $.d d d d d d "
};
