/* XPM */
static char *result[] = {
/* columns rows colors chars-per-pixel */
"32 32 144 2 ",
"   c #040303",
".  c #0A0706",
"X  c #240A00",
"o  c #1F2104",
"O  c #1E2E08",
"+  c #373206",
"@  c #3D3607",
"#  c #3F3608",
"$  c #373E0B",
"%  c #3B3C09",
"&  c #3F3814",
"*  c #442001",
"=  c #532000",
"-  c #592300",
";  c #5F3705",
":  c #513807",
">  c #583C07",
",  c #622700",
"<  c #682E04",
"1  c #722F01",
"2  c #6F3C0A",
"3  c #753101",
"4  c #793907",
"5  c #7D3B0D",
"6  c #663011",
"7  c #613321",
"8  c #663D2F",
"9  c #2F460F",
"0  c #3E400B",
"q  c #3B5712",
"w  c #385813",
"e  c #5A460B",
"r  c #464218",
"t  c #575913",
"y  c #5A5B13",
"u  c #5E6014",
"i  c #4C721A",
"p  c #54791C",
"a  c #70740C",
"s  c #616416",
"d  c #6C611F",
"f  c #6A6D18",
"g  c #6E721A",
"h  c #717416",
"j  c #767912",
"k  c #72751B",
"l  c #76791E",
"z  c #787A1F",
"x  c #544F35",
"c  c #7A7720",
"v  c #7B7A21",
"b  c #74762C",
"n  c #767928",
"m  c #6D683B",
"M  c #727633",
"N  c #757932",
"B  c #77793C",
"V  c #4E4E4E",
"C  c #545353",
"Z  c #755949",
"A  c #7E6842",
"S  c #7B7D41",
"D  c #823701",
"F  c #8D3D02",
"G  c #9F4706",
"H  c #9C4708",
"J  c #854110",
"K  c #9D4A1C",
"L  c #A34907",
"P  c #A44B09",
"I  c #AB4F0B",
"U  c #B75200",
"Y  c #B2530D",
"T  c #B35511",
"R  c #BD5911",
"E  c #BB5B19",
"W  c #864C33",
"Q  c #8E4E31",
"!  c #827727",
"~  c #857D26",
"^  c #877B29",
"/  c #8C7B2B",
"(  c #C95F05",
")  c #C75E0C",
"_  c #C55E13",
"`  c #D46405",
"'  c #CE6416",
"]  c #C86119",
"[  c #D06517",
"{  c #DA6A13",
"}  c #D36718",
"|  c #D5691A",
" . c #DB6C1C",
".. c #E77317",
"X. c #E1701D",
"o. c #E8741C",
"O. c #D46E2D",
"+. c #DE7022",
"@. c #CB723F",
"#. c #D4753C",
"$. c #E47321",
"%. c #E97623",
"&. c #EC7825",
"*. c #85665E",
"=. c #946E53",
"-. c #9D795B",
";. c #BD6945",
":. c #D67841",
">. c #D97940",
",. c #7D8160",
"<. c #888327",
"1. c #8C8229",
"2. c #90842A",
"3. c #98892D",
"4. c #9A8532",
"5. c #A48439",
"6. c #A69134",
"7. c #AD9338",
"8. c #828246",
"9. c #848456",
"0. c #86835B",
"q. c #8E8B67",
"w. c #918867",
"e. c #918D69",
"r. c #868D78",
"t. c #93917B",
"y. c #AB8463",
"u. c #E28146",
"i. c #E48C59",
"p. c #C7926E",
"a. c #CC9975",
"s. c #E69363",
"d. c #E59769",
"f. c #8D9485",
"g. c #9D9986",
"h. c #C9A095",
"j. c #EEAC81",
"k. c #E8B18A",
"l. c #F8B78B",
"z. c #F9B88D",
"x. c #C9B8B5",
"c. c #EBBDAF",
"v. c #E1BDB3",
"b. c #E1C1B8",
/* pixels */
"k k k k k k k k k l l g g k k k k k k k k k k k k k k k k k k k ",
"k k k k k k k k k g g k k k k k k k k k k k k k k k k k k k k g ",
"k k k k k k k k k k g k k k k k h k k k k k k k k k k k k k k k ",
"k k k k k k k k l k k k k k k k k k k k k k k k k k k k k k k k ",
"k k k k k l k j n k k k k k k k s o k k k k k k k k k k k h k k ",
"k k k k k l n f.M g k k k k k s w O g g k k k k k k k k k k k k ",
"k k k k k g n f.r.c k k k k g $ p t l l k l k k k k k k k k k k ",
"k k k k k k k b M k k k k k u p 9 u k l l l k k k k k k k k k k ",
"k k l k k k k k k k t 0 0 f 0 p 9 u f % % t k k k k k k k k k k ",
"k k l k k k k k f Z a.l.d.4 > i q m =.z.>.p.* f g k k k k k k k ",
"k l l k k k k A a.d.u.{ ' X.+.E E i.s.` %. ._ 3 e h k h k k k k ",
"k l g k k k r j.O.%.&.[ ] %.&.&. .&.[ [ $.&.&._ P % z ! h k k k ",
"k g k k k f y.s.%.&.$.' | &.&.&.&.&. .' +.&.&. ._ 2 / 4.z k k k ",
"k k k k k t k.{ &. .X.'  .&.$.%.&.&.%.' } &.%.$._ F d ! l k k k ",
"k k k k k y a.| &.&. .' X.&.&.&.$.%.%.' [ &. .$.[ F t k k k k k ",
"k k k k g -.@.$.&.&. .[  . .&.&.' $.$.' } &.&.%.| R ; g k k k k ",
"k k k k f -.:.%.( _ _ [  .&.&.&.&.X._ _ [ %.&.&. ._ , g k k k k ",
"k k k k k =.#...b.7 - I [ $.&.&.o.v.8 - I  .&.&.| _ , g k k k k ",
"k k k k f 6 ] $.W   X L [ o.&.&.$.Q . X G  .%. . ._ , g k k k k ",
"k k k l k e I X._ 1 L ;.h.c.h.;.c.U 1 H ] %.&.%.} I e k k k k k ",
"k k k k k t F | %.] [ K C C C V Z } ' ' ' &.&.%.[ F y l l k k k ",
"k k k k k t F  .&.[ ' ' h.*.x.x.E %.[ ' +.&.%.%.' F t k l k k k ",
"k l l k l g : T [ X.' [ _ _ ) ) %.%.' ' %.&. .[ Y : f k k k k k ",
"k l l l l c k > D T _ ' +.&.&.&.%.%.' | %.| T D > k k k k k k k ",
"k k l 1.7.1.h k s y = 4 _  .%.&.X.[ ] 5 J < y u f k k k k k k k ",
"k l ^ / 3.~ k k k k g g + @ + : # & x S h k k k k k k k k k k k ",
"k ^ 5.4.k k k z l k k k g k k k k S g.q.a k k k k k k k k k k k ",
"k k ^ 6.2.k l k k k k k k k k k k k b B h k k k k l l h j l k k ",
"k k l 1.~ k k k k k k k k k k k k k k h k k l l l l k 8.e.8.l k ",
"k k k g g k k k k l l l l z k k k k k k k k k k n N h 9.g.9.h k ",
"z l l k k k k k k k v 4.<.k k k k k k k k k c n t.w.b b S b k k ",
"k k l l k k k k k k k l k k k k k k k k g g f.0.,.,.l k k k k k "
};
