/* XPM */
static char *result[] = {
/* columns rows colors chars-per-pixel */
"32 32 151 2 ",
"   c black",
".  c #0A1416",
"X  c #1A2C07",
"o  c #0A3C05",
"O  c #363307",
"+  c #35340D",
"@  c #1A2021",
"#  c #431900",
"$  c #4B1C00",
"%  c #443A0F",
"&  c #533706",
"*  c #622700",
"=  c #632E02",
"-  c #742F00",
";  c #753304",
":  c #783406",
">  c #7C3803",
",  c #68391E",
"<  c #2E460F",
"1  c #26500F",
"2  c #344D11",
"3  c #474A0D",
"4  c #494B0E",
"5  c #5D4108",
"6  c #575A07",
"7  c #415210",
"8  c #565A12",
"9  c #595B13",
"0  c #4B6C18",
"q  c #5D6014",
"w  c #50731A",
"e  c #557B1C",
"r  c #646516",
"t  c #666817",
"y  c #666819",
"u  c #696C18",
"i  c #6E711A",
"p  c #727516",
"a  c #767912",
"s  c #72751B",
"d  c #76791E",
"f  c #787A1F",
"g  c #6E4933",
"h  c #696821",
"j  c #716521",
"k  c #6F722D",
"l  c #7A7720",
"z  c #7B7A21",
"x  c #74772B",
"c  c #767928",
"v  c #716237",
"b  c #726339",
"n  c #727633",
"m  c #757932",
"M  c #77793C",
"N  c #404242",
"B  c #795C46",
"V  c #7A7C42",
"C  c #706E51",
"Z  c #7A7E58",
"A  c #5B6062",
"S  c #776D6B",
"D  c #6D7273",
"F  c #797A7A",
"G  c #853A03",
"H  c #8D3C02",
"J  c #883F0A",
"K  c #8A3E12",
"L  c #974203",
"P  c #994304",
"I  c #9C4D14",
"U  c #9B5116",
"Y  c #AF4F04",
"T  c #AB4E09",
"R  c #B2520D",
"E  c #AA5110",
"W  c #BB5912",
"Q  c #864925",
"!  c #80543B",
"~  c #A05A3F",
"^  c #827727",
"/  c #857D26",
"(  c #897E28",
")  c #C65E13",
"_  c #C85F13",
"`  c #CB6005",
"'  c #D76603",
"]  c #CE6416",
"[  c #CB631A",
"{  c #D06517",
"}  c #D56816",
"|  c #D36719",
" . c #D5691B",
".. c #DB6C1D",
"X. c #E6731D",
"o. c #CA672B",
"O. c #D66C20",
"+. c #DD6E20",
"@. c #D36E2D",
"#. c #D47236",
"$. c #DC7638",
"%. c #E57322",
"&. c #E97624",
"*. c #EC7825",
"=. c #E3742A",
"-. c #E87B34",
";. c #905643",
":. c #8F654B",
">. c #9D7759",
",. c #A96845",
"<. c #A1795D",
"1. c #D77943",
"2. c #DA7E49",
"3. c #C27B52",
"4. c #E27B40",
"5. c #E37F48",
"6. c #7D8160",
"7. c #888327",
"8. c #8C8229",
"9. c #94872C",
"0. c #9B8532",
"q. c #A48439",
"w. c #AA9236",
"e. c #828246",
"r. c #848456",
"t. c #86835B",
"y. c #918D69",
"u. c #868D78",
"i. c #93917B",
"p. c #AA8765",
"a. c #AD857A",
"s. c #DD834F",
"d. c #C2826C",
"f. c #C58873",
"g. c #CE9B77",
"h. c #C89A78",
"j. c #DB9970",
"k. c #E78B61",
"l. c #EC8F65",
"z. c #F29D6B",
"x. c #848787",
"c. c #8D9485",
"v. c #9C9986",
"b. c #B38D83",
"n. c #AF948C",
"m. c #B39188",
"M. c #AFA6A4",
"N. c #A6A9AA",
"B. c #DBA781",
"V. c #E9B28A",
"C. c #F5B58A",
/* pixels */
"s s s s s s s s s d s i i s s s s s s s s s s s s s s s s s s s ",
"s s s s s s s s s i i i s s s s s s s s s s s s s s s s s p s s ",
"s s s s s s s s s s s s s s s s s s s s s s s s s s s s s s s s ",
"s s s s s s s s d s s s s s s s s s s s s s s s s s s s s s s s ",
"s s s s s d s a c s s s s s s s i i s s s s s s s p s s s s s s ",
"s s s s s d c c.m s s s s s s s 4 X s s s s s s s s s s s s s s ",
"s s s s s i c c.u.s s s s s s 3 w X s p s c s p s s s s s s s s ",
"s s s s s s s x n s s s s s i 7 0 q p c d d s s s s s s s s s s ",
"s s s s s s s s s s s s i s 9 e < 9 s i s s s s s s s s s s s s ",
"s s z s s s s s s u v B g r X e 2 9 h B , b u s s s s d s s s s ",
"i d d s s s p u 4 h.j.z.s.E U 1 o p.g.z.-.3.- 4 t s s p s s s s ",
"d d i s d p i >.C.#.=.| ] &.*.%.&.-.@.{ %.%...H = u f z s s s s ",
"i i s s s s + C.' *.*.| ] &.*.*.X.*.] ] &.*.*.] T % q.( f s s s ",
"s d s s s q B.$.*.*...] ..*.*.*.*.*.%.]  .*.*.%._ H j ^ s s s s ",
"i s s s s 9 V.} *.....] ..*.&.&.*.*.&.] { *.%.%.| H 9 s s s s s ",
"s s s s s 9 ,. .*.*...| ..*.*.*.| %.&.] | *.%.%.{ H 9 s s s s s ",
"s s s s s <.2.*.f.K G ) ....*.*.| f.K G ) *.*.*. .) * i s s s s ",
"s s s s s ! @.X.n..   H ..*.*.*.X.m.@   L *.*.*...) * s s s s s ",
"s s s s u <.1.%.R # G o.s.l.5.4.k.Y # : _ *.*.*. .) * u s s s s ",
"s s s s s :.#.*.%.[ [ ~ x.N.D A M.` | [ ] ..*.%...) * i s s s s ",
"s s s s s , [ *.*.%.{ H         $  .*...] ..*.*. .) * s d s s s ",
"s s s s d & R %.*.%.{ P         $ O.*.+.] ..*.*. .R 5 i d d s s ",
"s s l d f 9 H  .*.%.{ P         $ O.%.| | %.*.%.] H 9 s s i s s ",
"s s s l s y > { %.*...T S N F x.: +.] ] *.*.%.+.) > q s s s s s ",
"s c d 8.w.8.t ; T ....| d.;.a.b.%.*.] ] *.%.{ T ; r s s s s s s ",
"s f / ( 9./ p t O & H W  .%.*.*... .] [ O.T & O r s s s s s s s ",
"s ^ q.0.d s d z d i 8 8 : J I I I J Q C 6 8 i s s s s s d s s s ",
"s s ( w.8.s s s s s s s i i i i i u k M s s s s s d d p a d s s ",
"s s d 7./ s s i s s s s s s s s s s s s s s p d d d s e.y.e.p s ",
"s s s i s s s s s s l l p d s s s s s s s s d s c m p r.v.r.s s ",
"f d d d s s s s s s z 0.7.d s s s s s s s s c x i.y.m x V x s s ",
"s s d f s s s s s s s d s s s s s s s s s p c.t.Z 6.s s s s s s "
};
