/* XPM */
static char *result[] = {
/* columns rows colors chars-per-pixel */
"32 32 140 2 ",
"   c #040303",
".  c #0A0706",
"X  c #240A00",
"o  c #1F2104",
"O  c #1E2E08",
"+  c #373206",
"@  c #3D3607",
"#  c #373E0B",
"$  c #3B3C09",
"%  c #442001",
"&  c #532000",
"*  c #592300",
"=  c #513807",
"-  c #583C07",
";  c #5D3A0D",
":  c #622700",
">  c #682E04",
",  c #722F01",
"<  c #6F3C0A",
"1  c #753101",
"2  c #793907",
"3  c #7D3B0D",
"4  c #663011",
"5  c #613321",
"6  c #663D2F",
"7  c #2F460F",
"8  c #3E400B",
"9  c #385813",
"0  c #5A460B",
"q  c #464218",
"w  c #575913",
"e  c #5A5B13",
"r  c #5E6014",
"t  c #4C721A",
"y  c #54791C",
"u  c #70740C",
"i  c #616416",
"p  c #6C611F",
"a  c #6A6D18",
"s  c #6E721A",
"d  c #717416",
"f  c #767912",
"g  c #72751B",
"h  c #76791E",
"j  c #787A1F",
"k  c #544F35",
"l  c #7A7720",
"z  c #7B7A21",
"x  c #74762C",
"c  c #767928",
"v  c #6D683B",
"b  c #727633",
"n  c #757932",
"m  c #77793C",
"M  c #4E4E4E",
"N  c #545353",
"B  c #755949",
"V  c #7E6842",
"C  c #7B7D41",
"Z  c #7A7E58",
"A  c #823701",
"S  c #8D3D02",
"D  c #9C4708",
"F  c #854110",
"G  c #9D4A1C",
"H  c #A34907",
"J  c #A44B09",
"K  c #AB4F0B",
"L  c #AE500B",
"P  c #B75200",
"I  c #B35511",
"U  c #BD5911",
"Y  c #BB5B19",
"T  c #864C33",
"R  c #8E4E31",
"E  c #827727",
"W  c #857D26",
"Q  c #877B29",
"!  c #8C7B2B",
"~  c #C95F05",
"^  c #C75E0C",
"/  c #C55E13",
"(  c #D46405",
")  c #CE6416",
"_  c #C86119",
"`  c #D06517",
"'  c #DA6A13",
"]  c #D36718",
"[  c #D5691A",
"{  c #DB6C1C",
"}  c #E77317",
"|  c #E1701D",
" . c #E8741C",
".. c #D46E2D",
"X. c #DE7022",
"o. c #CB723F",
"O. c #D4753C",
"+. c #E47321",
"@. c #E97623",
"#. c #EC7825",
"$. c #85665E",
"%. c #946E53",
"&. c #9D795B",
"*. c #BD6945",
"=. c #D67841",
"-. c #7D8160",
";. c #888327",
":. c #8C8229",
">. c #90842A",
",. c #98892D",
"<. c #9A8532",
"1. c #A48439",
"2. c #AD9338",
"3. c #828246",
"4. c #848456",
"5. c #8E8B67",
"6. c #918867",
"7. c #918D69",
"8. c #868D78",
"9. c #93917B",
"0. c #AB8463",
"q. c #E28146",
"w. c #E48C59",
"e. c #C1836B",
"r. c #C7926E",
"t. c #CC9975",
"y. c #C9907C",
"u. c #E69363",
"i. c #E59769",
"p. c #8D9485",
"a. c #9D9986",
"s. c #C9A095",
"d. c #EEAC81",
"f. c #E8B18A",
"g. c #F8B78B",
"h. c #C9B8B5",
"j. c #EBBDAF",
"k. c #E1BDB3",
"l. c #EBC1B4",
"z. c #E1C1B8",
/* pixels */
"g g g g g g g g g g g g g g g g g g g g s g h g g g g g g g g g ",
"g g g g g g g g g g g g g g g g g g g g g s s s g g g g g g g g ",
"g g g g g g g g g g g g g g g g g g g g g g g g g g g g g g g g ",
"g g g g g g g g g g g g g g g g g g g g g g g h h g g g g g s g ",
"g g g g g g g g g g g g g d o i g g g g g g g z f s h g g g g g ",
"g g g g g d g g g g g g g g O 9 r g g g g g g n 9.c h g g g g g ",
"g g g g g g g g g g h g g h w y # g g g g g g 8.p.c g g g g g g ",
"g g g g g g d g g g g h h h r 7 y e g g g g g b b g g g g g g g ",
"g g g g g g g g g g w $ # a r 7 y 8 a 8 q e g g g g g g g g g g ",
"g g g d g g g s a % r.O.g.%.v 9 t ; 2 i.g.t.B a s g g g g z g g ",
"g g g g d g g 0 1 / { #.( u.w.Y Y X.| ) ' q.i.t.V g g g g h h g ",
"g g g g E j $ J ) @.#.@.) ] @.{ #.#. .) `  .@...d.q g g g g g g ",
"g g g l <.! < U [ #.#.X.) { #.#.#.@.@.[ ` +.#.@.u.0.a g g g s g ",
"g g g g E p S ) +.#.#.` ) @.#.#.@.+.#.X.` { [ #.' f.w g g g g g ",
"g g g g s e S ) +.{ #.] ) @.@.X.#.@.#.X.) { #.#.[ t.e d g g g g ",
"g g g g s 4 U [ @.#.#.] ) @.+.) #.@.{ { ` { #.#.@.o.6.s g g g g ",
"g g g g d : _ { #.#.@.) / / | #.#.#.#.{ ` / / ~ +.=.&.s g g g g ",
"g g g g s * _ [ #.#.{ K * 6 k. .#.#.@.) L * 5 z.} O.%.s g g g g ",
"g g g g s : _ [ { #.{ H X . R +.#.@.@.) H X   T +._ 4 s g d g g ",
"g g g g g 0 L ] @.#.+.) D , P j.e.y.l.s.*.J , / { L 0 g g g g g ",
"g g g g l w S ) +.#.#.] ) _ [ B M M N N G ) )  .[ S w g g g g g ",
"g g g h g e S ) +.#.#.{ ) ] @.Y h.h.$.s.) ` ` #.[ S r g g g g g ",
"g g g g s s = L ] { #.@.) ) #.+.~ ^ ^ ) ) ) +.] I = s l g z g g ",
"g g g g g g g - A I { @.[ ) #.+.@.@.#.{ ) / I 2 - h l g l l g g ",
"g g g g g g g s i e > F 3 _ _ X.#.#.{ / 2 & e i s s ;.2.;.h g g ",
"g g g g g g g g g g g d m k = $ = @ @ + s d g g h h ;.,.W Q l g ",
"g g g h g g g g g g h u 5.a.C g a s g g g g g h h h s h <.1.Q g ",
"g g h f g g g g s h s d m x g g s l g g g g g g s h s >.2.W g g ",
"d h 3.7.3.g h h h h d g g g g g s s h s g g g g g g s W :.h g g ",
"g g 4.a.4.d n c s h s g g g g g g h z h h l g g g g g g s g g g ",
"g g n C x x 7.9.x c g g g g g g g g h ;.<.z g g g g g g h g h j ",
"g g g g g g -.Z 4.p.d g g g g g g g g s g g g g g g g g j h g g "
};
