/* XPM */
static char *result[] = {
/* columns rows colors chars-per-pixel */
"32 32 142 2 ",
"   c black",
".  c #150400",
"X  c #362603",
"o  c #2E3006",
"O  c #373908",
"+  c #322725",
"@  c #3E3635",
"#  c #430000",
"$  c #4C1C00",
"%  c #542000",
"&  c #48340A",
"*  c #5B3206",
"=  c #5E3E07",
"-  c #622700",
";  c #682A00",
":  c #6A3606",
">  c #623907",
",  c #7F3703",
"<  c #2F460F",
"1  c #3A490E",
"2  c #304810",
"3  c #3E5B14",
"4  c #4A4C0E",
"5  c #4A4719",
"6  c #4F5110",
"7  c #505311",
"8  c #595C13",
"9  c #665515",
"0  c #67561D",
"q  c #5E6115",
"w  c #52771B",
"e  c #557A1C",
"r  c #626316",
"t  c #666917",
"y  c #6E661E",
"u  c #6B6D19",
"i  c #6E721A",
"p  c #727516",
"a  c #767912",
"s  c #72751B",
"d  c #76791E",
"f  c #787A1F",
"g  c #5C4A31",
"h  c #724329",
"j  c #5C602C",
"k  c #7A7720",
"l  c #7B7A21",
"z  c #74772B",
"x  c #767928",
"c  c #77673B",
"v  c #727633",
"b  c #757932",
"n  c #7A7C42",
"m  c #7C6E6A",
"M  c #843B04",
"N  c #8D3C02",
"B  c #943C00",
"V  c #974202",
"C  c #9B4506",
"Z  c #93490D",
"A  c #9B490E",
"S  c #A34908",
"D  c #AE4F0A",
"F  c #B5540E",
"G  c #B8560D",
"H  c #A75117",
"J  c #AA5416",
"K  c #B45512",
"L  c #BB5912",
"P  c #B15819",
"I  c #827727",
"U  c #877B29",
"Y  c #8A7D29",
"T  c #C65F13",
"R  c #CD6101",
"E  c #CE620E",
"W  c #D66503",
"Q  c #DE6C08",
"!  c #CE6316",
"~  c #D16517",
"^  c #D76915",
"/  c #DD6B14",
"(  c #D36719",
")  c #D5691C",
"_  c #DB6C1D",
"`  c #EC7407",
"'  c #E47011",
"]  c #E57118",
"[  c #EE781F",
"{  c #CB6523",
"}  c #D96E21",
"|  c #DF7122",
" . c #C26B38",
".. c #D27137",
"X. c #D5753D",
"o. c #E57322",
"O. c #E97624",
"+. c #EC7825",
"@. c #8F654B",
"#. c #946B51",
"$. c #957755",
"%. c #987657",
"&. c #AD6A52",
"*. c #A37B5F",
"=. c #D87A44",
"-. c #7D8160",
";. c #888327",
":. c #8C8229",
">. c #90842A",
",. c #99892E",
"<. c #9B8532",
"1. c #A48439",
"2. c #A69134",
"3. c #AD9338",
"4. c #828246",
"5. c #848456",
"6. c #86835B",
"7. c #918D69",
"8. c #868D78",
"9. c #93837E",
"0. c #93917B",
"q. c #B68C6D",
"w. c #E3854E",
"e. c #C69572",
"r. c #D69F79",
"t. c #E19263",
"y. c #E1976A",
"u. c #EA9C6E",
"i. c #EBA276",
"p. c #E9A97F",
"a. c #8D9485",
"s. c #9C9986",
"d. c #A59793",
"f. c #BDB4B2",
"g. c #E8B18A",
"h. c #F6B98E",
"j. c #CCAFA8",
"k. c #D4CCCB",
"l. c #E3CAC4",
"z. c #E4CFCA",
"x. c #E4D4D0",
"c. c #E2DAD7",
/* pixels */
"s s s s s s s s s s s s s s s s s s s s i s s s s s s s s s s s ",
"s s s s s s s s s s s s s s s s s s s s s i s s s s s s s s s s ",
"s s s s s s s s s s s s i s s s s s s s s s s s s s s s s s s s ",
"s s s s s s s s s s s s s s s s s s s p s s s f s s s s s s s s ",
"s s s s s s s s s s s s s s s s s s s s s s i f a s d s s s s s ",
"s s s s s s p s s s s s s s s s s s s s s s d b 8.x d s s s s s ",
"s s s s s s s s s s d d s x o t s i s s s s d 8.a.x i s s s s s ",
"s s s s p s s s s i d d d i o 2 t s s s s s i v v d s s s s s s ",
"s p s s s s s s s s s s u s 7 e O s s s s s s s s s s s s d s s ",
"s s s s s s s s s s s s s s 8 2 w q s s s s s s s s s s s d d s ",
"s s s s d s s s s s 8 4 & s q < e 1 i 4 4 q s s s s s s s d s s ",
"s s s i l k i s i X e.X.h.n j 3 e & : y.h.e.g i s s s s s s s s ",
"s s s k <.<.,.9 ; F ~ O.W u.t.J H _ _ E / w.i.q.c s s s s s i s ",
"s s s d I U 0 S ! O.+.o.! ~ +._ +.+.O.! ~ O.O.X.p.5 s s s s s s ",
"s s s s s y > G ( +.+.o.! _ +.+.+.+.O.( ~ o.+.o.u.$.t s s s s s ",
"s s s s s 8 N ! o.+.+.~ ! O.+.+.o.o.+.| ~ _ } +.^ g.q s s s s s ",
"s s s s s 8 N ~ o._ +.~ ~ o.O.O.+.+.+._ ~ _ +.+.^ r.8 s s s s s ",
"s s s s s = F ( O.+.+.! D L R ( +.+.] _ ! F L R o. .%.s s p s s ",
"s s s s i - T ( +.+.+.C . @ l.] +.+.+.} C . + z.' =.*.u s s s s ",
"s s s s p - ! ( +.+.+.L $   B Q +.[ ` Q G %   N o...@.s s s s s ",
"s s s s i - T ) _ +._ ~ G C R x.9.d.c.f.&.G C ) +.{ h i s s s s ",
"s s s k i - ! ) +.+._ ~ | +.( #         V ~ O.+.+.X.#.i s s s s ",
"s i s i i - T ) +.+._ ~ } +.) $         V ~ o.+.+.T % d d k s s ",
"s d i d s 8 N ! o.O.o.~ ) O.) $         V ! O.+.( N q s x k s s ",
"s s s s s 8 V ! ] +.+.~ ! O.) $         V ! O.O._ N y 3.:.d d s ",
"s s s s s q , ! | O.+.O.! ~ o.P k.k.m j.! _ O.o.~ M u ,.Y U f s ",
"s i s s s s q , F ~ o.O.! ~ +.o.R R ~ R ! _ o.F , q s s <.1.I d ",
"s d d a p d s q X * K | ) ! _ ) +.+.O._ T V * X r s s >.2.U s p ",
"s s 4.7.4.s d f s s 6 6 6 Z A J P P A M 4 6 i s s s i ;.:.k s s ",
"s s 5.s.5.p b x i s s s s u u u u u s i k k s s s i s s p s s s ",
"s s z n z z 7.0.z x s s s s s s s s s ;.,.l s s s s s s s s s k ",
"s s s s i s -.-.6.a.p s s s s s s s s s s s s s s s s s f x i d "
};
