/* XPM */
static char *result[] = {
/* columns rows colors chars-per-pixel */
"32 32 150 2 ",
"   c black",
".  c #150400",
"X  c #1E2E08",
"o  c #362603",
"O  c #392503",
"+  c #2E3006",
"@  c #373908",
"#  c #322725",
"$  c #3E3635",
"%  c #430000",
"&  c #4C1C00",
"*  c #542000",
"=  c #48340A",
"-  c #5B3206",
";  c #5E3E07",
":  c #622700",
">  c #682A00",
",  c #6A3606",
"<  c #623907",
"1  c #3A490E",
"2  c #304810",
"3  c #3E5B14",
"4  c #4A4C0E",
"5  c #50520F",
"6  c #4A4719",
"7  c #4F5110",
"8  c #505311",
"9  c #595C13",
"0  c #665515",
"q  c #67561D",
"w  c #5E6115",
"e  c #52771B",
"r  c #557A1C",
"t  c #626316",
"y  c #666917",
"u  c #6E661E",
"i  c #6B6D19",
"p  c #6E721A",
"a  c #727516",
"s  c #767912",
"d  c #72751B",
"f  c #76791E",
"g  c #787A1F",
"h  c #5C4A31",
"j  c #724329",
"k  c #5C602C",
"l  c #7A7720",
"z  c #7B7A21",
"x  c #74772B",
"c  c #767928",
"v  c #77673B",
"b  c #727633",
"n  c #757932",
"m  c #7A7C42",
"M  c #7C6E6A",
"N  c #803704",
"B  c #843B04",
"V  c #8D3C02",
"C  c #943C00",
"Z  c #974202",
"A  c #9B4506",
"S  c #93490D",
"D  c #9B490E",
"F  c #A34908",
"G  c #AE4F0A",
"H  c #B5540E",
"J  c #B8560D",
"K  c #A75117",
"L  c #AA5416",
"P  c #B45512",
"I  c #BB5912",
"U  c #B15819",
"Y  c #827727",
"T  c #857C27",
"R  c #877B29",
"E  c #8A7D29",
"W  c #C65F13",
"Q  c #CD6101",
"!  c #CE620E",
"~  c #D66503",
"^  c #DE6C08",
"/  c #CE6316",
"(  c #D16517",
")  c #D76915",
"_  c #DD6B14",
"`  c #D36719",
"'  c #D5691C",
"]  c #DB6C1D",
"[  c #E67003",
"{  c #EC7407",
"}  c #E47011",
"|  c #E57118",
" . c #ED771C",
".. c #EE781F",
"X. c #CB6523",
"o. c #D96E21",
"O. c #DF7122",
"+. c #C26B38",
"@. c #D27137",
"#. c #D5753D",
"$. c #E57322",
"%. c #E97624",
"&. c #EC7825",
"*. c #816248",
"=. c #8F654B",
"-. c #946B51",
";. c #957755",
":. c #AD6A52",
">. c #A37B5F",
",. c #D37740",
"<. c #D87A44",
"1. c #7D8160",
"2. c #888327",
"3. c #8C8229",
"4. c #90842A",
"5. c #99892E",
"6. c #9B8532",
"7. c #A48439",
"8. c #A69134",
"9. c #AD9338",
"0. c #828246",
"q. c #848456",
"w. c #86835B",
"e. c #918867",
"r. c #918D69",
"t. c #868D78",
"y. c #93837E",
"u. c #93917B",
"i. c #B68C6D",
"p. c #E3854E",
"a. c #C69572",
"s. c #D69F79",
"d. c #E19263",
"f. c #E1976A",
"g. c #EA9C6E",
"h. c #EBA276",
"j. c #E9A97F",
"k. c #8D9485",
"l. c #9C9986",
"z. c #A59793",
"x. c #BDB4B2",
"c. c #E8B18A",
"v. c #F6B98E",
"b. c #CCAFA8",
"n. c #C7C0BE",
"m. c #D4CCCB",
"M. c #E3CAC4",
"N. c #E4CFCA",
"B. c #E4D4D0",
"V. c #E2DAD7",
/* pixels */
"d d d d d d d d d f f p p d d d d d d d d d d d p d a d d d d d ",
"d d d d d d d d d p p d d d d d d d d d d d d d d d d d d d d d ",
"d d d d d d d d d d d d d d d d d d d d d d d d d d d d d d d d ",
"d d d d d d d d f d d d d d d d d d d d d d d d d d d d d d d d ",
"d d d d d f d s l p f p d d d d d d d d d d d d d d d d d d d d ",
"d d p d d f c u.b p p f d d d d a d d d d d d d d d d d d d d d ",
"d d d d f p c k.t.l d d d d d d y + f d d f f d d p a d d d d d ",
"d d d d d d p b b d d d d d d y 2 X d f f f d d d d d d d d d d ",
"d d d d d d d d d d d d d d d @ r 8 d i d d d d d d d d d d d d ",
"d f z d d d d d d d d d d d w e 2 9 d d d d d d d d d d d d d d ",
"d f f d d d d d d d w 4 4 p 1 r 2 t d 4 4 9 d d d d d d d d d d ",
"d f p d d d d p p h a.v.f., = e 3 k *.v.,.a.O p p d f z a d d d ",
"d p d d d d p v i.h.p._ ! O.O.K K d.g.~ %.) J > 0 5.6.6.g d d d ",
"d d d d d d 6 j.#.%.%.( / &.&.%.] %.( ( %.&.$.W F q R Y g d d d ",
"d d d d d i ;.g. .&.$.( ( %.&.%.&.&.] / O.&.&.' J < i d d d d d ",
"d d d d d 9 c.) %.o.] / O.&.| %.&.&.$./ ( &.&.$.( V 9 d d d d d ",
"d d d d d 9 s.` &.&.] / ] &.&.&.$.%.%./ ( &.] $./ V 9 d d d d d ",
"d d d d d ;.+.$.Q I H / O.] &.&.' Q I G ( &.&.&.' H ; d d d d d ",
"d d d d i >.<.} N.# . F O.%.&.&.| M.$ . A &.&.&.' W : p d d d d ",
"d d d d d =.@.$.C   * J ^ {  ...[ C   & J &.&.&.] W : p d d d d ",
"d d d d p j X.&.` A P :.x.V.z.y.B.Q A J ( o.&.] ' W : p f d d d ",
"d d d d p -.#.&.&.%.( C         % ` &.] ( ] &.&.' / : p f d d d ",
"d d f f d : W &.&.$.( Z         & X.&.] ( ] &.&.] W : i p d d d ",
"d d f f f 9 V ] &.%.( Z         & ' &.] ( O.&.$./ V 9 d d d d d ",
"d f f 3.9.u V ] &.$.( Z         & ' %./ ( &.&.$./ V 9 d d d d d ",
"d g R E 5.i B ( &.&.] / b.M n.m.U $.( / %.&.%.] W B w d d d d d ",
"d Y 7.6.d d 9 N H o.] / Q / Q Q $.&./ / %.$.( H N w d d f f d d ",
"d d E 8.4.d f t o - Z W ] &.&.&.] ' / ` $.P - o t d f a s d f d ",
"d d f 2.T d a d d i 7 4 B D U U L D S 5 5 5 p d f f p 0.e.0.d d ",
"f d d p p d d d d f l l p p i i i i i d d d f d c n a q.l.q.a d ",
"g f d f d d d d d d z 6.2.f d d d d d d d d c c u.r.x x m x d d ",
"d d f g d d d d d d d d d d d d d d d d p a k.w.1.1.f d d d d d "
};
