/* XPM */
static char *result[] = {
/* columns rows colors chars-per-pixel */
"32 32 142 2 ",
"   c black",
".  c #371300",
"X  c #3E1600",
"o  c #1D2D07",
"O  c #373808",
"+  c #393909",
"@  c #3D3A14",
"#  c #401700",
"$  c #582100",
"%  c #41330D",
"&  c #5F3103",
"*  c #5C3A07",
"=  c #453818",
"-  c #622700",
";  c #612D02",
":  c #6F2D00",
">  c #653605",
",  c #783A04",
"<  c #4D2E24",
"1  c #483C21",
"2  c #553B34",
"3  c #6B3925",
"4  c #2F440C",
"5  c #284E0E",
"6  c #2F4610",
"7  c #314A11",
"8  c #3D6616",
"9  c #464B0E",
"0  c #494E0F",
"q  c #534C0E",
"w  c #4F5110",
"e  c #5A5C13",
"r  c #7A4411",
"t  c #5E6014",
"y  c #5F611E",
"u  c #51751A",
"i  c #567C1C",
"p  c #636616",
"a  c #6A641C",
"s  c #6A6D19",
"d  c #6E721A",
"f  c #727516",
"g  c #767912",
"h  c #72751B",
"j  c #75791E",
"k  c #787A1F",
"l  c #4A4025",
"z  c #5E5B26",
"x  c #747625",
"c  c #7A7720",
"v  c #7B7A21",
"b  c #74772B",
"n  c #767928",
"m  c #787B2A",
"M  c #727633",
"N  c #767933",
"B  c #404141",
"V  c #645C5B",
"C  c #7A7C42",
"Z  c #686868",
"A  c #853901",
"S  c #8C3C02",
"D  c #8A3F08",
"F  c #8E420A",
"G  c #974203",
"H  c #98470D",
"J  c #A24907",
"K  c #AB4E06",
"L  c #A44B0B",
"P  c #A94D0A",
"I  c #BA5300",
"U  c #BC580F",
"Y  c #A14D11",
"T  c #A75214",
"R  c #AF5718",
"E  c #B15919",
"W  c #827727",
"Q  c #847C26",
"!  c #877B29",
"~  c #8A7D29",
"^  c #C35900",
"/  c #C55E13",
"(  c #C55F19",
")  c #CF6205",
"_  c #D6670A",
"`  c #CE6416",
"'  c #D16617",
"]  c #D66816",
"[  c #D5691C",
"{  c #DB6D1D",
"}  c #E67214",
"|  c #E87314",
" . c #E5721C",
".. c #D27239",
"X. c #E47321",
"o. c #EA7623",
"O. c #EC7825",
"+. c #E17B3C",
"@. c #8C5D4F",
"#. c #896D4E",
"$. c #91694E",
"%. c #89774F",
"&. c #9F775B",
"*. c #9E795E",
"=. c #B66B4D",
"-. c #D57944",
";. c #7D8160",
":. c #878026",
">. c #8A8327",
",. c #8C8229",
"<. c #99892E",
"1. c #9B8532",
"2. c #A48439",
"3. c #AA9236",
"4. c #B29839",
"5. c #828246",
"6. c #848456",
"7. c #86835B",
"8. c #918867",
"9. c #938C6C",
"0. c #868D78",
"q. c #93917B",
"w. c #AA8263",
"e. c #BD8360",
"r. c #DD8553",
"t. c #E78448",
"y. c #E18753",
"u. c #C68A65",
"i. c #C39572",
"p. c #D49A74",
"a. c #E49161",
"s. c #8D9485",
"d. c #9C9986",
"f. c #BA968A",
"g. c #E3AE87",
"h. c #F9AF81",
"j. c #E8B18A",
"k. c #F3B084",
"l. c #F8B082",
"z. c #C4ADA6",
"x. c #E7CCC4",
"c. c #EACCC4",
/* pixels */
"h h h h h h h h h h h h h h h h h h h h d h h h h h h h h h h h ",
"h h h h h h h h h h h h h h h h h h h h h d d h h h h h h h h h ",
"h h h h h h h h h h h h h h h h h h h h h h h h h h h h h h h h ",
"h h h h h h h h h h h h h f h h h h h h h h h j j h h h h h h h ",
"h h h h h h h h h h h h h h h h h h h h h h h x g h h h h h h h ",
"h h h h h h h h h h h h h h h h h h h h h h h M s.m j h h h h h ",
"h h h h h h h h h h j h h j j h h h h f h h h 0.s.n h h h h h h ",
"h h h h h h f h h h j j j j h h h h h h h h h M M h h h f h h h ",
"h h h h h h h h h h h h d d + s h h h h h h h h h h h h h h h h ",
"h h h h h h h h h h h h h d o 4 s h h h h h h h h h h h h k h h ",
"h h h h h h h h h h h h h h 0 i O h h h h h h h h h h f h x j h ",
"h h h d v k f h h h h h h j e 7 u t h h h h h h h h h h h h h h ",
"f h h k ~ 2.<.>.h h h h h h p 6 i 9 d j j h j j f h h h h h d h ",
"h h h j ! ~ 4.~ h h z % 1 s t 7 i o s = l z d h N h h h h h h h ",
"h h h h h h W s e $ u.+.h.w.%.5 8 r F a.l.p.*.y 9.n h h h h h h ",
"h h h h h h h * S /  .o.` -.t.[ [ X. .` ] +.r.g.#.h h h h h h h ",
"h h h h h h O P ` O.O.o.` ' O.{ O.O.X.` ` O.O.] k.@ h h h h h h ",
"h h h h h p , / { O.O.{ ` X.O.O.O.O.O.[ ` X.O.o.y.i.p h h h h h ",
"h h h h h e S ` X.O.O.' ` X.O.O.o.X.O.{ ` { { O.] j.e h h h h h ",
"h h h h h e S ' X.X.O.' ` o.X. .O.O.O.{ ` { O.O.[ e.e h h h h h ",
"h h h h d ; / [ O.O.O.` ' X.X.' O.O.[  .` { O.O.X.-.w.h h h h h ",
"h h h j d - / [ O.O.X.` U U _ O.O.O.O.[ ` U U ^ X...$.d h h h h ",
"h h h h d - / { O.O.{ J # 2 x. .O.O.o.` L # < x.} -.&.h j k h h ",
"h h h h d * U [ { O.X.P .   S } O.O.| ) K X   A { U * h j j h h ",
"h h h h h e S ` X.O.O.' P A I x.*.f.c.z.=.P A ` [ S a 4.~ j j h ",
"h h h h h e S ` X.O.O.[ ` ` ( 3 Z Z B V Y ` ` O.{ S p <.~ ! c h ",
"h h h h h s > U [ { O.o.` ' o.` z.f.@.f.` ' '  ./ > s j 1.2.W j ",
"h h j g f j s > G ` { o.' ' O.X.' [ ` ' ' / / S & d h ,.3.~ h h ",
"h j 5.9.5.h j s w q D R T H Y Y E E E R H : q w s h h Q :.h h h ",
"h h 6.d.6.f N m h h s s s s s s a a h s h d h h h h h d d h h h ",
"h f b C b b 8.q.b x h h h h h h h h j ,.1.v h h h h h h j h k k ",
"h h h h h h ;.;.7.s.f h h h h h h h h h j h h d h h h h v j h h "
};
