/* XPM */
static char *result[] = {
/* columns rows colors chars-per-pixel */
"32 32 148 2 ",
"   c black",
".  c #1C0600",
"X  c #151D1F",
"o  c #240900",
"O  c #022A06",
"+  c #182705",
"@  c #362603",
"#  c #352A03",
"$  c #2E3809",
"%  c #3B3508",
"&  c #393808",
"*  c #272C2D",
"=  c #5B3205",
"-  c #433D1B",
";  c #622700",
":  c #6B2C01",
">  c #7E3703",
",  c #3B410C",
"<  c #2F4610",
"1  c #3A5614",
"2  c #4E4D0F",
"3  c #48580C",
"4  c #50520F",
"5  c #5A510F",
"6  c #4F5110",
"7  c #405E15",
"8  c #585611",
"9  c #565913",
"0  c #595B13",
"q  c #4A6415",
"w  c #5E6115",
"e  c #557A1C",
"r  c #587F1E",
"t  c #616315",
"y  c #676917",
"u  c #6E661E",
"i  c #6C6D19",
"p  c #756E1F",
"a  c #6E721A",
"s  c #727516",
"d  c #767912",
"f  c #72751B",
"g  c #76791E",
"h  c #787A1F",
"j  c #724329",
"k  c #635C28",
"l  c #676426",
"z  c #7A7720",
"x  c #7B7A21",
"c  c #74772B",
"v  c #767928",
"b  c #6A6B30",
"n  c #727633",
"m  c #757932",
"M  c #7A7C42",
"N  c #7A7E58",
"B  c #616262",
"V  c #717272",
"C  c #803704",
"Z  c #843B04",
"A  c #8D3C02",
"S  c #923E01",
"D  c #964104",
"F  c #9A4304",
"G  c #9C460C",
"H  c #93490D",
"J  c #9B490E",
"K  c #A54A00",
"L  c #AC4E0A",
"P  c #AF500A",
"I  c #B3520C",
"U  c #BD590D",
"Y  c #A44B12",
"T  c #AC5517",
"R  c #B65610",
"E  c #B15819",
"W  c #BA5E1B",
"Q  c #9F5227",
"!  c #98552F",
"~  c #A75124",
"^  c #BD5D22",
"/  c #827727",
"(  c #857C27",
")  c #877B29",
"_  c #8A7D29",
"`  c #C55B00",
"'  c #C55E13",
"]  c #D0630F",
"[  c #C66015",
"{  c #CE6316",
"}  c #D16517",
"|  c #DE6D14",
" . c #D16619",
".. c #D4691A",
"X. c #DB6C1D",
"o. c #E57219",
"O. c #CD6625",
"+. c #DF7122",
"@. c #C06632",
"#. c #D36F31",
"$. c #D3733B",
"%. c #E47321",
"&. c #E97624",
"*. c #EC7825",
"=. c #E8772B",
"-. c #E87A34",
";. c #946B51",
":. c #977955",
">. c #A5634C",
",. c #A77151",
"<. c #C56C41",
"1. c #E37E41",
"2. c #7D8160",
"3. c #8A8327",
"4. c #8C8229",
"5. c #90842A",
"6. c #99892E",
"7. c #9B8532",
"8. c #A48439",
"9. c #A69134",
"0. c #AD9338",
"q. c #B29839",
"w. c #828246",
"e. c #848456",
"r. c #86835B",
"t. c #918867",
"y. c #918D69",
"u. c #868D78",
"i. c #93917B",
"p. c #AD8567",
"a. c #B68D6E",
"s. c #EA8345",
"d. c #C89873",
"f. c #E09467",
"g. c #868787",
"h. c #8D9485",
"j. c #9C9986",
"k. c #B4A29F",
"l. c #A2A4A5",
"z. c gray71",
"x. c #EAAD84",
"c. c #F2AD80",
"v. c #E7B189",
"b. c #EAB38B",
"n. c #F3B084",
"m. c #CCB7B1",
"M. c #C7C3C2",
"N. c #C8C9C9",
/* pixels */
"f f f f f f f f f f g a a f f f f f f f f f f f f f f f f f f f ",
"f f f f f f f f f a a f f f f f f f f f f f f f f f f f f f f f ",
"f f f f f f f f f f f f f f f f f f f f f f f f f f f f f f f f ",
"f f f f f f f f g f f f f f f f f f f f f f f f f f f f s f f f ",
"f f f f f g f d v f f f f f f f f f f f f f f f f f f f f f f f ",
"f f f f f g v i.m f f f f f f f s f f f f f f f f f f f f f f f ",
"f f f f f a v h.u.f f f f f f f f f g f f g f f f f f f f a f f ",
"f f f f f f a n n f f f f f f f a w g g g g f f f f f f f f f f ",
"f f f f f f f f f f f f f f f f , + s a f f f f f f f f f f f f ",
"f f x f f f f f f f f f f f f & e $ a f f f f f f f f f f f f f ",
"f f g f f f f f f f f f f f y q 7 w f f f f f f f f f f f f f f ",
"f g f f f f f f f f a i i f 9 e < w a a a a f a s a g x f f f f ",
"f a f f f f f f g 9 :.a.,.5 O r 1 3 k a.! :.9 f 5.7.8._ h f f f ",
"f f f f f f g b - b.f.s.#.' W % # d.x.1.=.@.D # p q._ / g f f f ",
"f f f f f f l a.c.X.%.} } &.*.*.%.*.] { *.*.X.L > p f f f f f f ",
"f f f f f f , n.| *.*.} { &.*.*.&.*.} { *.*.*.} L # f f f f f f ",
"f f f f g 0 v...*.&.X.} X.*.*.&.*.*.&.{ ..*.*.%.} A 0 f f f f f ",
"f f f f f 9 b...*.%.X.{ X.*.&.&.*.*.&.{ } *.X.%.} A 0 f f f f f ",
"f f f f f l Q X.*.*.X.} +.&.*.*. .o.%.{ } *.&.&.} D 8 f f f f f ",
"f f f f a p.1.&.X.X...} X.%.*.*.+.&.+.} } *.*.*.X.' ; f f f f f ",
"f f f f a j O.&.<.G F ' } &.*.&.*.@.G F ' X.*.*.X.' ; a f f f f ",
"f f f f i ;.$.o.m.X   F { &.*.*.o.m.*   D X.*.%...[ ; a g g f f ",
"f f v f g ; ' %.K . : ' O.-.=.=.-.K o : ' X.*.&.X.' ; a a f f f ",
"f f g h h 0 A ..+.L ' >.l.N.g.V N.` P ' } *.*.%.{ A 0 f f f f f ",
"f g g 4.0.u A ..*.} } U k.B z.M.S +. .{ } *.&.%.{ A 0 f f f f f ",
"f g ) _ 6.i Z } &.} { } ^ Y ~ ~ X.*.{ { &.*.&.%.' Z t f f f f f ",
"f ) 8.7.f f w C I X.} { X.+.+.o.*.*. .{ &.&.} I C t f f g f f f ",
"f f _ 9.5.f g t @ = D ' X.&.*.*.X.X.{ ..+.R = @ t f f f d g f f ",
"f f g _ ( f f f f i 6 2 Z J E E T J H 4 6 6 f f g g f w.y.w.s f ",
"f f f a s f f f f f v g a f i y y i i f f f f f v m s e.j.e.f f ",
"h g f g f f f f f f x 7.3.f f f f f f f f f v c i.t.c c M v f f ",
"f f g g f f f f f f f z f f f f f f f f f s h.r.N 2.g f f f f f "
};
