/* XPM */
static char *result[] = {
/* columns rows colors chars-per-pixel */
"32 32 150 2 ",
"   c black",
".  c #101C03",
"X  c #0A1416",
"o  c #3E1600",
"O  c #1A2C07",
"+  c #0A3C05",
"@  c #363307",
"#  c #35340D",
"$  c #1A2021",
"%  c #431900",
"&  c #4B1C00",
"*  c #443A0F",
"=  c #533706",
"-  c #622700",
";  c #632E02",
":  c #742F00",
">  c #753304",
",  c #783406",
"<  c #7C3803",
"1  c #68391E",
"2  c #2E460F",
"3  c #26500F",
"4  c #344D11",
"5  c #474A0D",
"6  c #494B0E",
"7  c #5D4108",
"8  c #575A07",
"9  c #4F5211",
"0  c #565A12",
"q  c #595B13",
"w  c #4B6C18",
"e  c #5D6014",
"r  c #50731A",
"t  c #557B1C",
"y  c #646516",
"u  c #666817",
"i  c #666819",
"p  c #696C18",
"a  c #6E711A",
"s  c #727516",
"d  c #767912",
"f  c #72751B",
"g  c #76791E",
"h  c #787A1F",
"j  c #6E4933",
"k  c #696821",
"l  c #716521",
"z  c #6F722D",
"x  c #7A7720",
"c  c #7B7A21",
"v  c #74772B",
"b  c #767928",
"n  c #716237",
"m  c #727633",
"M  c #757932",
"N  c #77793C",
"B  c #404242",
"V  c #795C46",
"C  c #7A7C42",
"Z  c #706E51",
"A  c #5B6062",
"S  c #776D6B",
"D  c #6D7273",
"F  c #797A7A",
"G  c #853A03",
"H  c #8D3C02",
"J  c #883F0A",
"K  c #8A3E12",
"L  c #89400B",
"P  c #974203",
"I  c #994304",
"U  c #8B411B",
"Y  c #9C4D14",
"T  c #9B5116",
"R  c #AF4F04",
"E  c #AB4E09",
"W  c #AC500D",
"Q  c #B2520D",
"!  c #AA5110",
"~  c #BB5912",
"^  c #864925",
"/  c #80543B",
"(  c #A05A3F",
")  c #827727",
"_  c #857D26",
"`  c #877B29",
"'  c #C65E13",
"]  c #C85F13",
"[  c #CB6005",
"{  c #D76603",
"}  c #CE6416",
"|  c #CB631A",
" . c #D06517",
".. c #D56816",
"X. c #D36719",
"o. c #D5691B",
"O. c #DB6C1D",
"+. c #E6731D",
"@. c #CA672B",
"#. c #DD6E20",
"$. c #D36E2D",
"%. c #DE7023",
"&. c #D47236",
"*. c #E57322",
"=. c #E97624",
"-. c #EC7825",
";. c #E3742A",
":. c #E87B34",
">. c #905643",
",. c #8F654B",
"<. c #9D7759",
"1. c #A96845",
"2. c #D77943",
"3. c #DA7E49",
"4. c #C27B52",
"5. c #7D8160",
"6. c #888327",
"7. c #8C8229",
"8. c #94872C",
"9. c #9B8532",
"0. c #A48439",
"q. c #AA9236",
"w. c #828246",
"e. c #848456",
"r. c #86835B",
"t. c #918867",
"y. c #918D69",
"u. c #868D78",
"i. c #93917B",
"p. c #AA8765",
"a. c #AD857A",
"s. c #DD834F",
"d. c #C2826C",
"f. c #C58873",
"g. c #CE9B77",
"h. c #C89A78",
"j. c #DB9970",
"k. c #E78B61",
"l. c #EC8F65",
"z. c #F29D6B",
"x. c #848787",
"c. c #8D9485",
"v. c #9C9986",
"b. c #B38D83",
"n. c #AF948C",
"m. c #B39188",
"M. c #AFA6A4",
"N. c #A6A9AA",
"B. c #E9B28A",
"V. c #F5B58A",
/* pixels */
"f f f f f f f f f f f f f f f f f f f f a g f f f f f f f f f f ",
"f f f f f f f f f f a f f f f f f f f f f a a f f f f f f f f f ",
"f f f f f f f f f f f f f f f f f f f f f f f f f f f a f f f f ",
"f f f f f f f f f f f f f f f f f f f f f f f f g f f f f f f f ",
"f f f f f f f f f f f f f f a f f f f f f f f c d f g f f f f f ",
"f f f f f f f f f f f f f f . 9 f f f f f f f M c.b g f f f f f ",
"f f f f f f f f f f g f f f O r 5 f f f f f f u.c.c a f f f f f ",
"f f f f s f f f f f g c g f e w 4 s f f f f f m m a f f f f f f ",
"f f f a f f f f f f f f a f e 2 t e f f f a f f g a f f f f g a ",
"f f f f f f f f f p n 1 V k 0 4 t O y j V n p f f f f f f h g f ",
"f f f f f f f p 6 : 4.:.z.h.p.+ 3 T ! s.z.j.h.9 p f f f g g g a ",
"f f f f ) c p ; I X.=.*.} $.:.*.*.=.*. ...;.&.V.<.a f f a a g f ",
"f f f x 9.9.* E } -.-.=.}  .-.+.-.-.=.}  .-.-.{ V.# f f f f a f ",
"f f f f ) l G ] *.-.-.o.} *.-.-.-.-.-.O.} #.=.=.:.g.e f f f f f ",
"f f s f f q H } *.*.=. .} =.-.-.=.=.-.#.} #.#.-.O.B.q f f f f f ",
"f f f f f q H  .*.*.-. .} =.*.o.=.=.=.#.} O.-.-.O.1.0 f f f f f ",
"f f f f a - } o.-.-.=.' G U f...=.-.O.#.' G K f.=.3.p.f f f f f ",
"f f f f a - ' o.-.-.-.P   $ m.*.-.-.-.#.I   X n.+.$./ p f f f f ",
"f f f f a - ' o.=.-.=.} < % R k.:.s.l.s.@.< o W +.2.<.f f f f f ",
"f f f f a - } o.*.-.O. .| | [ M.A D N.x.( ] | *.-.&.,.p f f f f ",
"f f f f f - | o.=.-.O.} O.-.o.&         P } =.-.=.@.1 a f f f f ",
"f f f g a 7 W o.=.-.O. .%.-.o.&         P } *.-.+.Q 7 a f f f f ",
"f f f f a q H  .*.-.=. .X.*.o.&         P X.*.-.o.H q c f c f f ",
"f f f f f y < ] O.*.-.=.} } #., x.F B S E O.-.*.} < i f c x f f ",
"f f f f f f y > E } *.*.} } -.%.b.a.>.d. .O.O.E > y 7.q.7.g g f ",
"f f f f f f f y @ = W O.| } o.O.-.-.*.o.~ H = @ u f _ 8.7.` x f ",
"f f f f f f g f f a q 8 Z ^ L Y Y Y J , 0 q a g h f f f 9.0._ f ",
"f f g d s g f f f f f s N z a a p f a a f f f f f f f 8.q.` f f ",
"f g w.y.w.f g g f g f f f f f f f f f f f f f f f f a 6.7.g f f ",
"f f e.v.e.s M b f f f f f f f f f f h h g c f f f f f a a f f f ",
"f f v C v v t.i.v b f f f f f f f f f 6.9.c f f f f f f g g g h ",
"f f f f f f 5.5.r.c.s f f f f f f f f f f f f f f f f a h h a f "
};
