/* XPM */
static char *result[] = {
/* columns rows colors chars-per-pixel */
"32 32 72 1 ",
"  c #423614",
". c #453A14",
"X c #4C3B15",
"o c #4B3D18",
"O c #4C4315",
"+ c #4F4A15",
"@ c #544616",
"# c #534C16",
"$ c #54461A",
"% c #544C18",
"& c #5A4D1B",
"* c #4F5113",
"= c #545216",
"- c #5B5516",
"; c #555915",
": c #5B5C16",
"> c #545219",
", c #5B5319",
"< c #5D5D19",
"1 c #625F17",
"2 c #615A19",
"3 c #5E6217",
"4 c #5F6218",
"5 c #626217",
"6 c #646419",
"7 c #6A641B",
"8 c #66691A",
"9 c #6C6C1B",
"0 c #70651E",
"q c #716D1D",
"w c #786F1D",
"e c #6E711B",
"r c #717416",
"t c #767911",
"y c #72751C",
"u c #79741E",
"i c #76791F",
"p c #78791F",
"a c #715826",
"s c #6D6420",
"d c #686826",
"f c #746423",
"g c #736C22",
"h c #736E2C",
"j c #757422",
"k c #7A7623",
"l c #767923",
"z c #7C7B23",
"x c #73752C",
"c c #7C7429",
"v c #767928",
"b c #7E7A29",
"n c #6A6738",
"m c #747830",
"M c #7A7C42",
"N c #7D7F5B",
"B c #807E25",
"V c #817D2B",
"C c #807F44",
"Z c #7D8160",
"A c #828026",
"S c #85812D",
"D c #89832D",
"F c #878330",
"G c #888430",
"H c #848456",
"J c #86835B",
"K c #888462",
"L c #918867",
"P c #918E79",
"I c #8D9484",
"U c #9C9986",
/* pixels */
"yyyyyyyyyyyyyyyyyryyeyyyyyyyyyyi",
"yyryyyryyyyryyyuyyyyerryyyryyyyy",
"yyyyyyyyyyyyyy91qyyyyyyyyyriyyyy",
"yyyyyyyyyyyy97gckyyyyyyiiyyyyyyy",
"iyyyyiyyy99qccVGVgsgyyjltyyiryyy",
"ryryyryryjggFGVAVzccjedMIliyyyyy",
"yyyyyyyegSVbFFbzbSDVgqjCZmyyyyyy",
"yyyyyyreqbVzbFBBAASl9cVVmiyyyyry",
"riyryry9qjzkvVDGBSAjeBSSveqyyyyy",
"yyyyyy9quzVVDzDDBVVgelbBzd00ypyy",
"yyyyqqqqzVDGDkzzzg9fbFSVpzzgyyiy",
"ryye079yBGDDDBuyyiljbFVzylv7eyiy",
"yy9wkzylFDAADDzyzpzpbSGbe9979yyy",
"yy6qzyedlBzzBAyipzABlzSAj99y99yy",
"ye3299jVBzpyppy9ezSDVBzle49yq9yy",
"e3>,7vSSBBzyyi98epBSGGze867y79yy",
"e3&7ycVzwzzj999eyzSGSSby96<6770y",
"y9%29yzSBuyee99zbuBSllzi9838yl7y",
"96#,gjvGVBe98ebSSjjd9ed8338eyy27",
"5=&hVVbVVBe88evBzy93598:<89872%:",
"#+2jBzjejk8669yqyli5:63:6yy99$#5",
"#+,79986796156619ub9::<<9ky99,%%",
"=#O%1983365133599yyq933<<7:17,=-",
"65%.=1:*:5:;::5yy79y6366:;=#@@=#",
"y9. .@*;22-::;:88:6e3:693<=%oO<8",
"9:   .++@--55;=;;=:6;=:64>%$o$,y",
"e:.  .  .@<3:=*==:;;%XO%>o .&asy",
"ry7+@O   .%>*XO@o%-,o. .. O&a7yy",
"rrZKn5;.  .XX    .X. . .OO3zDuyy",
"ytHUHrxd+OO  O+O  . O,>=59eryyyy",
"yyvMvxLPx<;=:9<=+#=7fq86eyyyiypp",
"yyyyyyZNJIryee989ye79yyyyyyypiyy"
};
