/* XPM */
static char *result[] = {
/* columns rows colors chars-per-pixel */
"32 32 163 2 ",
"   c black",
".  c #3A0911",
"X  c #363808",
"o  c #373808",
"O  c #383908",
"+  c #383909",
"@  c #383A08",
"#  c #393A08",
"$  c #393A09",
"%  c #393A0A",
"&  c #3A3C09",
"*  c #41420A",
"=  c #40420B",
"-  c #42440C",
";  c #44460C",
":  c #44450E",
">  c #4D4F0F",
",  c #4F510E",
"<  c #4F5210",
"1  c #4F511E",
"2  c #515310",
"3  c #505211",
"4  c #515411",
"5  c #535511",
"6  c #565812",
"7  c #585A13",
"8  c #585B13",
"9  c #5B5D13",
"0  c #5A5D14",
"q  c #5B5E14",
"w  c #5C5F14",
"e  c #605D19",
"r  c #5F6215",
"t  c #616315",
"y  c #616416",
"u  c #666917",
"i  c #67621C",
"p  c #686A18",
"a  c #686B18",
"s  c #6C6F19",
"d  c #6D7219",
"f  c #6D711A",
"g  c #6E711A",
"h  c #6E711B",
"j  c #6F721A",
"k  c #6F731A",
"l  c #6F741A",
"z  c #717415",
"x  c #727516",
"c  c #767911",
"v  c #757913",
"b  c #70721A",
"n  c #70731A",
"m  c #71721B",
"M  c #70731B",
"N  c #737619",
"B  c #70741A",
"V  c #71741A",
"C  c #70741B",
"Z  c #71741B",
"A  c #71751B",
"S  c #72751A",
"D  c #72751B",
"F  c #73751B",
"G  c #71761A",
"H  c #73761B",
"J  c #71711D",
"K  c #70751C",
"L  c #71751C",
"P  c #72751C",
"I  c #73751C",
"U  c #72751D",
"Y  c #72761C",
"T  c #73761C",
"R  c #73761D",
"E  c #73761E",
"W  c #73771E",
"Q  c #74761C",
"!  c #74771C",
"~  c #75761D",
"^  c #74771D",
"/  c #75771D",
"(  c #76771D",
")  c #74771E",
"_  c #77771E",
"`  c #76791B",
"'  c #75781D",
"]  c #75781E",
"[  c #75791E",
"{  c #75781F",
"}  c #76791E",
"|  c #76781F",
" . c #76791F",
".. c #767A1F",
"X. c #777A1F",
"o. c #79781F",
"O. c #787A1F",
"+. c #787B1F",
"@. c #515227",
"#. c #736422",
"$. c #737625",
"%. c #747625",
"&. c #747727",
"*. c #7A7720",
"=. c #757926",
"-. c #7A7820",
";. c #787B20",
":. c #797B20",
">. c #7F7A22",
",. c #737629",
"<. c #74772C",
"1. c #75772D",
"2. c #767928",
"3. c #7A7C2D",
"4. c #727632",
"5. c #757631",
"6. c #747830",
"7. c #767A31",
"8. c #777A35",
"9. c #757936",
"0. c #7A7C42",
"q. c #7A7E58",
"w. c #811426",
"e. c #A11B31",
"r. c #827727",
"t. c #817C22",
"y. c #827D23",
"u. c #857A27",
"i. c #847D26",
"p. c #877E27",
"a. c #877B29",
"s. c #897E28",
"d. c #8A7C2A",
"f. c #7D8160",
"g. c #878026",
"h. c #8C8327",
"j. c #8C8129",
"k. c #8C8229",
"l. c #90842A",
"z. c #98892D",
"x. c #9A882F",
"c. c #9A8233",
"v. c #9B8731",
"b. c #9B8433",
"n. c #A48439",
"m. c #A69134",
"M. c #AD9338",
"N. c #B29839",
"B. c #828245",
"V. c #818147",
"C. c #838356",
"Z. c #848455",
"A. c #86835B",
"S. c #918867",
"D. c #918D69",
"F. c #9C9173",
"G. c #93917B",
"H. c #96927F",
"J. c #8D9482",
"K. c #8D9386",
"L. c #8C9486",
"P. c #9C9986",
"I. c white",
/* pixels */
"D D D D D D D D D W W d Z D D D D D D D D D D D D D D D D D D D ",
"D D D D D D D D D k d D D D D D D D D D D D D D D D D D D D D D ",
"D D D D D D D D D D D D . . . . . . . D D D D D D D D D D D D D ",
"D D D D D D D ^  .D D . e.e.e.e.e.e.w.. D D D D D D D D D D D D ",
"D D D D T ^ V c ..D . e.. . . . e.e.e.w.. D D D D D D D D D D D ",
"D D D D T ] 2.J.9.. e..         . e.e.e.w.. D D D D D D D D D D ",
"D D D D D A =.K.. e..             . e.e.w.. T D D D D D D D D D ",
"D D D D D D P 4.. e..             . e.e.w.w.. D D D D D D D D D ",
"D T T D D D D D . e.. I.      I.  . e.w.w.w.. D D D D D D D D D ",
"D ^ ;.D D D D D . e.. I.      I.  . e.w.. w.. D D D D D D D D D ",
"D ) W Y D D D D . w..             . e.w.. w.. D D D D D D D D D ",
"D W C D D D D D . w..           . e.w.w.. . D D B l o.>.V D D D ",
"D k D D D D D S ^ . w..       . w.w.w.. D D D Q h.x.b.c.-.D D D ",
"D D D D D D P 8.E C . w.. . . w.w.. . D D D D F g.N.d.r._ D D D ",
"D D D D D D %.F.&.. w.e.e.e.e.e.w.w.w.. D D D D I t.I Z D D D D ",
"D D D D D D U 5.. w.e.e.e.e.e.e.e.e.e.w.. D D D D D D D D D D D ",
"D D D D D D D D . w.e.e.e.e.e.e.e.e.e.w.. D D D D D D D D D D D ",
"D D D D D D D D . e.e.e.e.e.e.e.e.e.e.e.. D D D D D D D D D D D ",
"D D D D D D D D . e.e.e.e.e.e.e.e.e.e.e.w.. D D D D D D D D D D ",
"D D D D D D D . w.e.e.e.e.w.e.e.e.e.e.e.w.. D D D D D T T D D D ",
"D D D D D D D . w.e.e.e.e.w.e.e.e.e.e.e.w.. D D D D T { ^ D D D ",
"D D D D D D D . w.w.e.e.w.. w.e.e.e.e.e.w.. D D D D A K [ ! D D ",
"D ^ +.' ] T D . w.w.e.w.w.. w.w.e.w.e.w.w.w.. D D D D B C A D D ",
"D Y ] | ~ X.T . w.w.w.w..   . w.w.e.w.w.w.w.. D D D D D A D D D ",
"D ^ { k.M.k.T . w.. w.w..     . w.w.w.w.. w.. D D D D D D D D D ",
"D *.a.s.z.y.D ! . w.w..       . w.w.. w.. . D D D D D D D D D D ",
"I u.n.v.! A T ;.^ . . .   n j . . . H.. . g D D D H D D ^ T D D ",
"D I p.m.l.V R Y p 4 t   w 9 8 6     1 @., y Z D D T ^ N v ` T D ",
"D D ( j.i.A V V a ; =   & $ O o   X # * 2 u / T } ' G V.D.B.! D ",
"T D D k n D D D g 0 :   $ % + @   - > q a n ! L 3.7.z C.P.Z.S D ",
"O.] R ^ D D D D D s i #.e 3 < 5 7 r p g Z D $.,.G.S.6.<.0.1.D D ",
"A K ..:.D D D D D D m J h f g j b M Z D D x L.A.q.f.U D S D D D "
};
