/* XPM */
static char *result[] = {
/* columns rows colors chars-per-pixel */
"32 32 162 2 ",
"   c #70740C",
".  c #6D7219",
"X  c #6F721A",
"o  c #6F731A",
"O  c #6F741A",
"+  c #717415",
"@  c #717517",
"#  c #727516",
"$  c #767911",
"%  c #757913",
"&  c #70731A",
"*  c #717419",
"=  c #717519",
"-  c #727518",
";  c #727519",
":  c #737619",
">  c #70741A",
",  c #71741A",
"<  c #70741B",
"1  c #71741B",
"2  c #71751B",
"3  c #72751A",
"4  c #72741B",
"5  c #72751B",
"6  c #73751B",
"7  c #71761A",
"8  c #73761B",
"9  c #70711C",
"0  c #70751C",
"q  c #71751C",
"w  c #73741C",
"e  c #72751C",
"r  c #73751C",
"t  c #72751D",
"y  c #72761C",
"u  c #73761C",
"i  c #73761D",
"p  c #70741F",
"a  c #72751E",
"s  c #72751F",
"d  c #73761E",
"f  c #73771E",
"g  c #74761C",
"h  c #74771C",
"j  c #75761D",
"k  c #74771D",
"l  c #76771D",
"z  c #74741E",
"x  c #74771E",
"c  c #77771E",
"v  c #76791B",
"b  c #75781D",
"n  c #76781D",
"m  c #75781E",
"M  c #75791E",
"N  c #75781F",
"B  c #76791E",
"V  c #76781F",
"C  c #76791F",
"Z  c #77791F",
"A  c #767A1F",
"S  c #777A1F",
"D  c #78791E",
"F  c #79781F",
"G  c #78791F",
"H  c #787A1F",
"J  c #787B1F",
"K  c #787C1F",
"L  c #737623",
"P  c #737625",
"I  c #747625",
"U  c #747727",
"Y  c #7A7720",
"T  c #757824",
"R  c #757926",
"E  c #7A7820",
"W  c #787B20",
"Q  c #797B20",
"!  c #7F7A22",
"~  c #7C7C21",
"^  c #7F7C22",
"/  c #7F7925",
"(  c #737629",
")  c #72752E",
"_  c #74772C",
"`  c #75772D",
"'  c #767928",
"]  c #76792A",
"[  c #7A7C2D",
"{  c #727632",
"}  c #727633",
"|  c #757631",
" . c #747830",
".. c #767A31",
"X. c #777B32",
"o. c #777A35",
"O. c #757936",
"+. c #797B35",
"@. c #77793C",
"#. c #797B3A",
"$. c #777C47",
"%. c #7A7C42",
"&. c #7B7D42",
"*. c #7C7D40",
"=. c #787F4A",
"-. c #797F59",
";. c #7A7E58",
":. c #827727",
">. c #817C22",
",. c #817D23",
"<. c #827D23",
"1. c #857A27",
"2. c #847D26",
"3. c #877D27",
"4. c #877E27",
"5. c #897F27",
"6. c #877B29",
"7. c #897E28",
"8. c #8A7C2A",
"9. c #7E8156",
"0. c #7D8160",
"q. c #878026",
"w. c #888327",
"e. c #8C8327",
"r. c #8C8129",
"t. c #8C8229",
"y. c #90842A",
"u. c #98892D",
"i. c #9A882F",
"p. c #9A8233",
"a. c #9A8631",
"s. c #9B8731",
"d. c #9B8433",
"f. c #9D8533",
"g. c #A68E36",
"h. c #A48439",
"j. c #A78B39",
"k. c #A69134",
"l. c #AD9338",
"z. c #B29839",
"x. c #828245",
"c. c #818147",
"v. c #838356",
"b. c #848455",
"n. c #86835B",
"m. c #8B8B61",
"M. c #8E8B67",
"N. c #8B8C6C",
"B. c #918867",
"V. c #918967",
"C. c #918D69",
"Z. c #868D78",
"A. c #9C9173",
"S. c #93917B",
"D. c #92917C",
"F. c #8D9482",
"G. c #8D9386",
"H. c #8C9486",
"J. c #929280",
"K. c #9D9985",
"L. c #9C9986",
"P. c #A5A192",
/* pixels */
"5 5 5 5 5 5 5 5 5 5 5 5 5 5 5 5 5 5 5 1 . f f 5 5 5 5 5 5 5 5 5 ",
"5 5 5 5 5 5 5 5 5 5 5 5 5 5 5 5 5 5 5 5 5 . o 5 5 5 5 5 5 5 5 5 ",
"5 5 5 5 5 5 5 5 5 5 5 5 5 5 5 5 5 5 5 5 5 5 5 5 5 5 5 5 5 5 5 5 ",
"5 5 5 5 5 5 5 5 5 5 5 5 5 5 5 5 5 5 5 5 5 5 5 C k 5 5 5 5 5 5 5 ",
"5 5 5 5 5 5 5 5 5 5 5 5 5 5 5 5 5 5 5 5 5 5 5 A $ , k u 5 5 5 5 ",
"5 5 5 5 5 5 5 5 5 5 5 5 5 5 5 5 5 5 5 5 5 5 5 O.F.' m u 5 5 5 5 ",
"5 5 5 5 5 5 5 5 5 u C u u m u 5 5 5 5 5 5 5 s Z.G.R 2 5 5 5 5 5 ",
"5 5 5 5 5 5 5 5 5 5 x C N k 5 5 5 5 5 5 5 5 e } { e 5 5 5 5 5 5 ",
"5 5 5 5 5 5 5 5 5 5 2 q X > 5 5 5 5 5 5 5 5 5 5 5 5 5 5 5 u u 5 ",
"5 5 5 5 5 5 5 5 5 5 5 5 5 5 5 5 5 5 5 5 5 5 5 5 5 5 5 5 5 W k 5 ",
"5 5 5 5 5 5 5 5 5 5 5 5 5 5 5 5 5 5 5 5 5 5 5 5 5 5 5 5 y f x 5 ",
"5 5 5 , ! F O > 5 5 5 5 5 5 5 5 5 5 5 5 5 5 5 5 5 5 5 5 5 < f 5 ",
"5 5 5 E p.d.i.e.g 5 5 5 5 5 5 5 5 5 5 m B 5 h k 3 5 5 5 5 5 o 5 ",
"5 5 5 c :.8.z.q.6 5 5 5 5 5 5 5 5 5 k K X.] < d o.e 5 5 5 5 5 5 ",
"5 5 5 5 1 r >.r 5 5 5 5 5 5 5 5 5 5 = =.V.D.$.U A.I 5 5 5 5 5 5 ",
"5 5 5 5 5 5 5 5 5 5 5 5 5 5 5 5 5 5 5 p -.J.P.#.| t 5 5 5 5 5 5 ",
"5 5 5 5 5 5 5 5 5 5 5 5 5 5 5 5 5 5 5 3 2 N.9.L 5 5 5 5 5 5 5 5 ",
"5 5 5 5 5 5 5 5 5 5 5 5 5 5 5 5 5 5 5 5 5 a t 5 5 5 5 5 5 5 5 5 ",
"5 5 5 5 5 5 5 5 5 5 5 5 5 5 5 5 5 5 5 5 5 5 5 5 5 5 5 5 5 5 5 5 ",
"5 5 5 u u 5 5 5 5 5 5 5 5 5 5 5 5 5 u 5 5 5 5 5 5 5 5 5 5 5 5 5 ",
"5 5 5 k N u 5 5 5 5 5 5 5 5 5 5 5 5 k Z 5 u 5 5 5 5 5 5 5 5 5 5 ",
"5 5 h M 0 2 5 5 5 5 5 5 5 5 5 5 5 5 u C ~ G 5 5 5 5 5 5 5 5 5 5 ",
"5 5 2 < > 5 5 5 5 5 5 5 5 5 5 5 5 5 > ^ f.g.,.5 5 5 u m b J k 5 ",
"5 5 5 2 5 5 5 5 5 5 5 5 5 5 5 5 5 5 5 5 5.3.j.E 5 u S j V m y 5 ",
"5 5 5 5 5 5 5 5 5 5 5 5 t T d 5 5 5 5 5 u e 9 4 5 u t.l.t.N k 5 ",
"5 5 5 5 5 5 5 5 5 5 5 @ *.m.+.5 5 5 5 5 5 5 5 u h 5 <.u.7.6.Y 5 ",
"5 5 u k 5 5 8 5 5 5 5   M.K.&.3 5 5 5 5 5 5 5 B W u 2 h s.h.1.r ",
"5 u v % : k u 5 5 5 5 - @.) * 5 5 5 5 5 5 5 5 5 y i , y.k.4.r 5 ",
"5 h x.C.c.7 b B u n 5 5 ; 3 5 5 5 5 5 5 5 5 5 5 , , 2 2.r.l 5 5 ",
"5 3 b.L.v.+ ..[ q h 5 5 5 5 5 5 5 g H b D V u 5 5 5 5 & o 5 5 u ",
"5 5 ` %._  .B.S.( P 5 5 5 5 5 5 5 5 k w.a./ 5 5 5 5 5 5 k i m H ",
"5 5 5 3 5 t 0.;.n.H.# 5 5 5 5 5 5 5 2 e z w 5 5 5 5 5 5 Q A 0 2 "
};
