/* XPM */
static char *result[] = {
/* columns rows colors chars-per-pixel */
"32 32 158 2 ",
"   c #353708",
".  c #393B08",
"X  c #36391D",
"o  c #3A3D1E",
"O  c #423C0E",
"+  c #3F410B",
"@  c #3E411E",
"#  c #42440C",
"$  c #46480F",
"%  c #4E500F",
"&  c #474819",
"*  c #524916",
"=  c #4E5010",
"-  c #515311",
";  c #575912",
":  c #5B5D14",
">  c #5C5818",
",  c #635B1A",
"<  c #5E6115",
"1  c #626416",
"2  c #666917",
"3  c #616118",
"4  c #676A18",
"5  c #6B691A",
"6  c #6B6D19",
"7  c #6E7113",
"8  c #6F721B",
"9  c #72751B",
"0  c #76791F",
"q  c #78781F",
"w  c #444B3B",
"e  c #6A5E23",
"r  c #705924",
"t  c #6A6D21",
"y  c #716820",
"u  c #6E7027",
"i  c #727622",
"p  c #797B20",
"a  c #71752A",
"s  c #717534",
"d  c #71763A",
"f  c #323E47",
"g  c #3D494B",
"h  c #344350",
"j  c #354C6C",
"k  c #2D4F7E",
"l  c #334C70",
"z  c #335077",
"x  c #4F544D",
"c  c #555C43",
"v  c #515A52",
"b  c #6E764E",
"n  c #707743",
"m  c #7B7C43",
"M  c #606B5B",
"N  c #6D7654",
"B  c #6D775A",
"V  c #797D57",
"C  c #6B7764",
"Z  c #69776B",
"A  c #6D7A6D",
"S  c #606F72",
"D  c #677775",
"F  c #6A7A73",
"G  c #65777E",
"H  c #66787A",
"J  c #837826",
"K  c #887955",
"L  c #7D8160",
"P  c #828245",
"I  c #838355",
"U  c #84815A",
"Y  c #8F8967",
"T  c #8F8D78",
"R  c #2E588D",
"E  c #295796",
"W  c #2D5A96",
"Q  c #386196",
"!  c #37659E",
"~  c #486B96",
"^  c #5F7B96",
"/  c #5A7A9D",
"(  c #637783",
")  c #637985",
"_  c #61798D",
"`  c #597AA2",
"'  c #5A79A5",
"]  c #557CAC",
"[  c #527CB2",
"{  c #2974C4",
"}  c #2A76CA",
"|  c #417AC4",
" . c #5581B4",
".. c #5488BF",
"X. c #2B82DA",
"o. c #3E85D6",
"O. c #3B86DA",
"+. c #3E89DD",
"@. c #1F8CF1",
"#. c #1C93F2",
"$. c #2C85E0",
"%. c #3389E2",
"&. c #3C8DE1",
"*. c #3D91E6",
"=. c #3592E9",
"-. c #3C99EE",
";. c #2686F0",
":. c #2987F0",
">. c #238BF1",
",. c #2A8BF1",
"<. c #328EF1",
"1. c #2391F2",
"2. c #2891F2",
"3. c #3491F1",
"4. c #3B95F2",
"5. c #3699F2",
"6. c #3D9BF2",
"7. c #3EA4F4",
"8. c #4D82C3",
"9. c #4481CE",
"0. c #4C86CA",
"q. c #548BC8",
"w. c #4486D4",
"e. c #488BD5",
"r. c #448CDB",
"t. c #4B93DC",
"y. c #4392E4",
"u. c #4B98E3",
"i. c #4396E9",
"p. c #479AE9",
"a. c #4B9DEC",
"s. c #429CF3",
"d. c #43A3F4",
"f. c #4BA4F4",
"g. c #44AAF5",
"h. c #4CACF5",
"j. c #52A7F1",
"k. c #51ADF6",
"l. c #53B1F6",
"z. c #5BB6F7",
"x. c #5DB7F8",
"c. c #5DB8F8",
"v. c #65B9F7",
"b. c #6ABAF7",
"n. c #62B9F8",
"m. c #6BBBF8",
"M. c #72BFF8",
"N. c #75C3F9",
"B. c #7BC5F9",
"V. c #7FC8F9",
"C. c #899183",
"Z. c #9B9886",
"A. c #84C9F9",
"S. c #89CEFB",
"D. c #8BD0FA",
"F. c #94D6FC",
"G. c #97D8FC",
"H. c #9CDCFD",
/* pixels */
"9 9 9 9 9 9 9 9 9 9 9 9 i a a a a a a u 8 0 0 9 9 9 9 9 9 9 9 9 ",
"9 9 9 9 9 9 9 9 9 9 9 i b G ( ( ( ( ( G N u 8 8 9 9 9 9 9 9 9 9 ",
"9 9 9 9 9 9 9 9 9 a N A ^ w.r.+.+.+.+.o. .C N s 9 9 9 9 9 9 9 9 ",
"9 9 9 9 9 9 9 a s A ' | t.f.h.j.j.j.h.6.+.9.] F d a 9 9 9 9 9 9 ",
"9 9 9 9 9 9 9 G ] | t.d.7.h.k.k.k.k.h.g.g.h.u.q.[ ) a 9 9 9 9 9 ",
"9 9 9 9 9 a H ..u.a.j.n.N.b.h.g.7.g.g.h.l.l.h.d.a.q.) d 9 9 9 9 ",
"9 9 9 9 9 s ] y.h.l.n.S.F.D.N.k.g.g.g.z.k.h.h.l.k.i.[ N 9 9 9 9 ",
"9 9 9 9 a C 8.-.g.z.V.G.H.H.D.b.l.l.l.l.h.7.7.h.g.6.0.D a 9 9 9 ",
"9 9 9 a B ] u.f.h.z.N.F.H.G.A.n.c.c.g.l.g.g.g.7.g.d.u. .Z s 9 9 ",
"9 9 i B ] &.d.b.N.v.n.N.S.V.l.z.c.c.g.7.g.g.l.k.h.h.g.*. .A 0 9 ",
"9 9 u ( O.d.g.m.A.B.v.z.z.g.g.z.c.l.g.7.7.l.c.c.l.h.g.d.+.^ p 9 ",
"9 9 b / y.h.k.h.m.A.M.h.g.g.g.l.l.g.7.g.g.l.c.c.c.h.h.h.y.] B i ",
"9 s _ e.j.k.g.k.z.v.c.z.l.g.g.g.g.g.h.l.h.g.l.c.c.l.g.k.h.e./ s ",
"9 s ' *.l.k.h.z.z.z.l.h.k.l.k.h.h.l.l.l.g.7.g.h.h.h.7.g.k.p.] s ",
"9 d ` y.l.l.l.l.k.f.s.5.6.f.f.s.s.f.g.7.5.5.5.6.g.h.g.k.l.i.[ s ",
"9 s ` *.l.x.k.g.6.,.,.:.,.:.:.;.,.,.,.>.;.>.>.<.d.k.g.g.k.*.[ s ",
"9 d ` *.k.h.g.6.2.>.2.@.;.@.@.@.>.2.2.2.#.@.@.;.<.d.h.g.7.<.[ s ",
"9 s / &.g.d.5.,.,.>.#.#.#.#.#.#.#.1.1.#.#.#.#.>.,.3.6.g.7.=.] s ",
"9 a Z  .*.d.s.,.>.1.#.#.#.#.#.#.#.#.#.#.#.#.#.@.>.;.6.f.-.[ D a ",
"9 9 s _ +.h.s.,.>.#.#.#.#.#.#.#.#.#.#.#.#.#.#.#.>.;.s.k.&./ d 9 ",
"9 9 i Z 8.a.4.;.>.@.#.#.#.#.#.#.#.#.#.#.#.#.#.#.@.;.3.a.0.G i 9 ",
"9 9 i n ) w.<.<.>.@.#.#.1.#.#.#.#.#.#.#.#.#.@.@.;.<.<.r.^ b 9 9 ",
"9 9 8 4 M | -.s.,.,.,.2.1.#.@.@.#.@.2.1.1.@.>.,.,.4.i.9.S 6 9 9 ",
"9 9 6 : c ~ w.s.6.s.4.,.>.>.:.;.>.>.,.,.:.>.<.s.s.s.t.` v ; 9 9 ",
"9 9 6 ; = w Q } -.7.6.4.s.s.4.6.4.4.s.s.s.4.s.s.6.O.' K $ $ 9 9 ",
"9 9 6 : = $ g Q { X.%.d.h.f.s.s.d.d.f.f.j.d.=.X.} ! x e O * q 9 ",
"9 9 9 4 ; - $ g j R { $.%.%.$.$.%.X.%.%.%.$.} W l h . $ * r J 9 ",
"9 9 9 7 2 < ; % # g z E W W E E E E E E E W k f     . , r 5 9 9 ",
"9 q P Y L 7 2 < ; = & & @ @ o X X X X X X X X . . . # , y 5 9 9 ",
"9 9 I Z.P 7 a a 1 < : = % $ $ # + + $ . # # # # $ $ = < 5 9 9 9 ",
"9 9 a m a s Y T u t 2 < < ; ; - - = = > , > - - ; ; < 4 9 9 9 q ",
"9 9 9 9 9 9 V V U C.7 6 6 2 4 2 1 3 1 3 1 1 1 1 2 2 6 8 p 0 9 9 "
};
