/* XPM */
static char *result[] = {
/* columns rows colors chars-per-pixel */
"32 32 121 2 ",
"   c black",
".  c #3A0911",
"X  c #4A320F",
"o  c #4E2B16",
"O  c #4B3411",
"+  c #4A3D14",
"@  c #4D341C",
"#  c #4F381F",
"$  c #523623",
"%  c #533B24",
"&  c #583925",
"*  c #573B29",
"=  c #593D2C",
"-  c #573F30",
";  c #4C4314",
":  c #4F4915",
">  c #524216",
",  c #534D16",
"<  c #5A4E17",
"1  c #534518",
"2  c #58431B",
"3  c #564A19",
"4  c #5E4B1D",
"5  c #565116",
"6  c #595516",
"7  c #5C5A17",
"8  c #59551C",
"9  c #5C5918",
"0  c #615D16",
"q  c #63531D",
"w  c #635D1A",
"e  c #636115",
"r  c #646319",
"t  c #6B641D",
"y  c #6C6D1B",
"u  c #6E711A",
"i  c #767911",
"p  c #72751B",
"a  c #76791F",
"s  c #5D4523",
"d  c #5C422E",
"f  c #5D4E2A",
"g  c #5D5B23",
"h  c #564536",
"j  c #5B4333",
"k  c #594539",
"l  c #5B4B3D",
"z  c #644D24",
"x  c #60442B",
"c  c #634C2E",
"v  c #67572C",
"b  c #6A5C2A",
"n  c #614734",
"m  c #644A33",
"M  c #614E3C",
"N  c #615136",
"B  c #695436",
"V  c #64523C",
"C  c #6A5E38",
"Z  c #6B6420",
"A  c #6E632E",
"S  c #706F20",
"D  c #6F722E",
"F  c #797B20",
"G  c #74762C",
"H  c #767828",
"J  c #6C643B",
"K  c #757936",
"L  c #5B4F41",
"P  c #5D5142",
"I  c #5F564A",
"U  c #644F40",
"Y  c #615344",
"T  c #6A5343",
"R  c #645749",
"E  c #665A4D",
"W  c #6A5C4D",
"Q  c #655D52",
"!  c #6A5E52",
"~  c #716247",
"^  c #70624B",
"/  c #7A7C42",
"(  c #6B6155",
")  c #666058",
"_  c #6C655A",
"`  c #6F695E",
"'  c #746655",
"]  c #726658",
"[  c #726A5D",
"{  c #7A6E5F",
"}  c #767955",
"|  c #7D7B53",
" . c #6D6760",
".. c #746E62",
"X. c #767165",
"o. c #7B7365",
"O. c #7C7865",
"+. c #7C776A",
"@. c #7E796C",
"#. c #7F7B70",
"$. c #811426",
"%. c #A11B31",
"&. c #857B5D",
"*. c #807766",
"=. c #81776B",
"-. c #817B6D",
";. c #827E71",
":. c #7F8578",
">. c #808044",
",. c #888362",
"<. c #858274",
"1. c #898476",
"2. c #878479",
"3. c #898679",
"4. c #8C897C",
"5. c #8E8B80",
"6. c #918D81",
"7. c #8D9482",
"8. c #949185",
"9. c #9A9784",
"0. c white",
/* pixels */
"p p p p p p p p p p p p p p p p p p p p u a a p p p p p p p p p ",
"p p p p p p p p p p p p p p p p p p p p p u u u p p p p p p p p ",
"p p p p p p p p p p p p p . . . . . . . p p p p p p p p p p p p ",
"p p p p p p p p p p p a . $.%.%.%.%.%.%.. p p a a u p p p p p p ",
"p p p p p p p p u v d . $.%.%.%.. . . . %.. p a i p p a p p p p ",
"p p p p p p p B o.O.. $.%.%.%..         . %.. K 7.H a p p p p p ",
"p p p p p S o.-.=.-.. $.%.%..             . %.. W ~ X.b p p p p ",
"p p p p y { ;.<.<.. $.$.%.%..             . %.. 2.;.@.;.Z p p p ",
"p p p t { =.;.3.5.. $.$.$.%..   0.      0.. %.. ;.2.;.<.<.A p p ",
"p p p J ;.;.4.5.( . $.. $.%..   0.      0.. %.. X.#.2.2.2.<.A p ",
"p p u o.5.4.5.;.E . $.. $.%..             . $.. ....+.3.3.3.4.t ",
"p p q 4.;.4.5.E R M . . $.$.%..           . $.. W .._ ;.( ! Q Z ",
"p p =.=.=.+.n U M W Q l . $.$.$..       . $.. ` X.M ( W @.X.;.r ",
"p p ] 4.;.;.=.U U ! ! & = . . $.$.. . . $.. s  .( W = ;.@.+...w ",
"p p W 5.;.;.;.n L E % ; . $.$.$.%.%.%.%.%.$.. N ( ( V +.;.-._ < ",
"p p ! ;.3.3.;.;.L $ , . $.%.%.%.%.%.%.%.%.%.$.. N W T o.;.;.! > ",
"p p ( _ 6.4.4.;.T ; 7 . $.%.%.%.%.%.%.%.%.%.$.. p d j <.:.3.Y + ",
"p p 4 ] =.6.4.4.T f t . %.%.%.%.%.%.%.%.%.%.%.. C <.2.V O.Y M + ",
"p u w E [ =.[ T <.-.. $.%.%.%.%.%.%.%.%.%.%.%.. -.<.<.1.Y k $ + ",
"u y R ( [ +.T 3.3.3.3.<.b c c 7 5 , , x z ~ 1.3.1.1.1.E Y k $ + ",
"u r E ] ( X.m o.6.4.4.3.=.3.<.=.+.o.' { *.3.4.3.3.+.E Y M $ # + ",
"y 9 E ] X.] n { { @.8.4.' 2.<.-.;.<.3.3.1.o.4.-.] R Y E j L $ ; ",
"y , E  ...+.[ { X.{ X.o.4.2.;.4.4.4.4.3.-.<.[ W ! R I h L L $ ; ",
"y 5 = _ [ ..<.[ ^ X.X.] X.` [ ` [ [ [ ` [ [ ^ ! R R h l L l # ; ",
"y 6 ; l [ ..X.j R ^ ..W .._ ` ` ..` ` _ _ _ ! P M @ h l L $ ; , ",
"u e , ; l ..X.n R E * & [ ) ` _ _ ` E ) Q Q $ l l % l l k ; : 8 ",
"p y r , + l ..j ( ` _ E P Y = * * * * = l M I P P # l h 2 z z y ",
"p u u e , + - $ ) ) _ ( ! Q E k ) Q Q I Q Q I P P o @ 1 q 8 r u ",
"u i :.,.J , ; ; + = h ( ! Q E L _ ) Q Q Q Q I P % + ; 3 w r u p ",
"i i >.9.| e g 5 ; ; + X X h k $  ._ Q L k h X O ; ; : 6 0 y p p ",
"p p G / H D &.O.g 8 , ; ; ; ; + X O o 1 4 ; ; , 6 9 r y u p F a ",
"p p p p p p O.} | :.e 7 6 5 5 : ; ; : , 5 8 9 7 y u u p F F u p "
};
