/* XPM */
static char *result[] = {
/* columns rows colors chars-per-pixel */
"32 32 129 2 ",
"   c #4B3E14",
".  c #4D3A1C",
"X  c #4F3F21",
"o  c #503F24",
"O  c #533F2A",
"+  c #4D4415",
"@  c #4E421C",
"#  c #524B15",
"$  c #52461C",
"%  c #544A1B",
"&  c #5A481C",
"*  c #565216",
"=  c #5B5717",
"-  c #5D5A17",
";  c #57511A",
":  c #5B541A",
">  c #5E5C18",
",  c #615D1A",
"<  c #6A5E1F",
"1  c #6B6C15",
"2  c #656419",
"3  c #68641E",
"4  c #676819",
"5  c #6C6D1A",
"6  c #706F1E",
"7  c #6E7015",
"8  c #6E711A",
"9  c #727613",
"0  c #767811",
"q  c #72751B",
"w  c #76791E",
"e  c #787A1F",
"r  c #4F4122",
"t  c #514323",
"y  c #574B23",
"u  c #53422D",
"i  c #564B2A",
"p  c #594D2B",
"a  c #5C5525",
"s  c #5F5A22",
"d  c #564434",
"f  c #5A4636",
"g  c #5B4B33",
"h  c #574738",
"j  c #594738",
"k  c #5C4C3D",
"l  c #5F503B",
"z  c #6B5224",
"x  c #6B5821",
"c  c #635C2D",
"v  c #614D3D",
"b  c #675D37",
"n  c #63543E",
"m  c #665A3F",
"M  c #685F3C",
"N  c #656420",
"B  c #6B6624",
"V  c #6D6A26",
"C  c #66612C",
"Z  c #6A632D",
"A  c #6E6B2B",
"S  c #716F2E",
"D  c #6E702D",
"F  c #727224",
"G  c #787A20",
"H  c #72732C",
"J  c #6C6533",
"K  c #6E6933",
"L  c #6A633D",
"P  c #716D34",
"I  c #716B3C",
"U  c #737531",
"Y  c #73723A",
"T  c #5C4F41",
"R  c #5E5144",
"E  c #5F564B",
"W  c #604F40",
"Q  c #625444",
"!  c #6A5E46",
"~  c #635649",
"^  c #655A4C",
"/  c #6A5C4D",
"(  c #655C52",
")  c #695E51",
"_  c #685F58",
"`  c #676445",
"'  c #6C6445",
"]  c #6C624B",
"[  c #70654F",
"{  c #746D4C",
"}  c #737545",
"|  c #7C7D44",
" . c #77724C",
".. c #6C6254",
"X. c #6D6559",
"o. c #6F695D",
"O. c #716555",
"+. c #746A54",
"@. c #71665A",
"#. c #736A5C",
"$. c #786D5D",
"%. c #797352",
"&. c #797B54",
"*. c #7A725C",
"=. c #746D61",
"-. c #796F62",
";. c #767064",
":. c #7A7364",
">. c #7F7867",
",. c #7C7669",
"<. c #7E796C",
"1. c #807769",
"2. c #827C6D",
"3. c #837E71",
"4. c #7D8160",
"5. c #828245",
"6. c #838355",
"7. c #838059",
"8. c #8E8564",
"9. c #81806F",
"0. c #908C68",
"q. c #868274",
"w. c #898476",
"e. c #8B8874",
"r. c #898679",
"t. c #8D897C",
"y. c #908F7A",
"u. c #878E80",
"i. c #A39F90",
/* pixels */
"q q q q q q q q q q q q q q q q q q q q 8 q q q q q w q q q q q ",
"q q q q q q q q q q q q q q q q q q q q q 8 8 q q q q q q q q q ",
"q q q q q q q q q q q q q q q q w q q q q q q q q q q q q q q w ",
"q q q q q q q q V K K F q q q q w q q q q q q w w q q q q q q 9 ",
"q q q q q q P { +.$.$.I 6 q 5 7 9 q q q q q q w 0 5 q q q q q q ",
"q q q q F } *.:.1.3.2.+.c I %.%. .F q q q q q Y q.{ } H q q q q ",
"q q q F I :.3.3.3.3.2.O.! 1.q.e.2.U q q q q F :.:.<.:. .H q q q ",
"q q q I *.3.q.w.3.:.#./ $.w.t.t.e.I 6 q q q S +.3.q.q.<.%.D q w ",
"q q P %.3.3.r.3.=.......;.w.q.q.3.J 8 q q q A ] <.q.q.q.3.%.Y q ",
"q q { 3.r.r.r.-._ ^ W O.=.o.@.o.@.J 5 q q 8 K ] ;.,.q.q.r.3.%.V ",
"q A :.r.3.r.3.) Q W W ~ ..( ....X.c 2 5 8 A ' #.X.=.,.3.;.@.' V ",
"q I $.1.1.$./ v Q ^ Q Q ^ ^ / O./ g : 2 8 A ! #.X...X.#.O...' V ",
"6 { <.3.1.-.Q v ~ / W j v ^ $.1.1.:.O.J 6 V ! @.) ! / :.:.,.+.N ",
"5 { <.r.w.3.@.W ~ Q c y Q -.2.q.e.e.q.$.Y H L / _ / / ;.<.<.+.3 ",
"6 ' ,.r.w.3.1.~ W p %   n ;.3.w.t.t.t.$.%.y.} L / / O.<.2.,.] 2 ",
"q ' $.3.r.r.3.@.v +     g ) =.<.3.q.3./ ` t.i.Y b n +.,.q.;.Q > ",
"6 L @.,.t.t.3.-.l @ + + y v ~ ( X.,.X.g = >.&.D I ..$.:.,.X.g ; ",
"q B / =.2.r.2.-.#.n i ; > = % i k ) v t # s K { :.q.3.;./ T u # ",
"q Z ! @.-.#.$.3.q.<.O.M Z C a % $ o t t p ' *.2.q.q.9.o.W O t # ",
"q L ..@.O.O.:.w.t.r.r.>.*.*.[ Q m n / ] +.2.e.w.q.2.#.! j O t + ",
"6 L ) =.@.^ @.1.3.t.t.2.2.3.3.2.2.2.1.2.1.3.r.q.:...~ R j O O + ",
"6 M ) #.=.#.O.-.,.2.3.3.q.r.q.r.r.3.r.r.q.1.:.$./ ~ ~ T k j t # ",
"q J ) =.=.<.-.$.-.-.-.:.,.,.,.,.2.3.1.,.;.$.) / ^ Q k k T h o # ",
"q V ! @.=.,.-./ ..=.@.#.o.o.=.=.=.=.=.X.X.../ Q v k d T k O $ * ",
"q q Z ! o.=.=.Q E ..! / X.X.X.=.o.X.X.( / ~ R k f d j T d X + = ",
"q q 5 b ! o.X.~ ..E R E ~ ~ ) ^ ) ^ ~ R R R k h d d h h u $ # > ",
"q q q 5 c ^ ) ~ ..X...E ~ R k k W T T T Q E E T d O O X & z < 4 ",
"q q q 9 5 , u f E ( ....( ^ ^ ( _ ( ( ( ( ~ R T d .   % x < 4 5 ",
"w e 5.0.| 5 2 ; t t h l R E E E _ _ ( ( E T d u . + + : x 4 5 q ",
"q 0 5.y.6.1 K B = ; % t t u i k R T h O u r @ + + # ; - 2 5 q q ",
"q q H 4.U U 8.e.V 2 > - = # $ t t r r y & % # * = > 2 5 8 q q G ",
"q q q w q q 4.&.7.u.7 4 2 > - = = * # ; - - > 2 4 5 8 q G G q q "
};
