/* XPM */
static char *result[] = {
/* columns rows colors chars-per-pixel */
"32 32 122 2 ",
"   c black",
".  c #3A0911",
"X  c #49320E",
"o  c #4B2F13",
"O  c #4E2D1A",
"+  c #463712",
"@  c #4B3313",
"#  c #473C14",
"$  c #493D14",
"%  c #4D361B",
"&  c #4E3A1B",
"*  c #573A1C",
"=  c #523624",
"-  c #5C3C27",
";  c #553B2A",
":  c #583C2B",
">  c #583F30",
",  c #4B4214",
"<  c #4F4815",
"1  c #4F471C",
"2  c #524317",
"3  c #524B16",
"4  c #584A16",
"5  c #55441A",
"6  c #59461C",
"7  c #534A1B",
"8  c #565215",
"9  c #5A5417",
"0  c #5D5A16",
"q  c #57531E",
"w  c #5F561A",
"e  c #635A13",
"r  c #63541C",
"t  c #646419",
"y  c #676819",
"u  c #6C6D1A",
"i  c #706E1C",
"p  c #6E721A",
"a  c #767911",
"s  c #72751B",
"d  c #76791F",
"f  c #787A1F",
"g  c #5E4426",
"h  c #5C412A",
"j  c #5F4B28",
"k  c #5C552F",
"l  c #564336",
"z  c #5C4433",
"x  c #574738",
"c  c #5C4538",
"v  c #5B4B3D",
"b  c #614925",
"n  c #634D2B",
"m  c #695F20",
"M  c #63532C",
"N  c #67592B",
"B  c #6A592C",
"V  c #604937",
"C  c #624D3C",
"Z  c #64503E",
"A  c #6A6023",
"S  c #6D662B",
"D  c #696B2B",
"F  c #6F712A",
"G  c #737623",
"H  c #797B20",
"J  c #75772D",
"K  c #797B3A",
"L  c #5C4E41",
"P  c #5D5142",
"I  c #5F574A",
"U  c #604F44",
"Y  c #615244",
"T  c #6A5645",
"R  c #6E5A46",
"E  c #645649",
"W  c #655A4D",
"Q  c #6B5D4D",
"!  c #705E4C",
"~  c #655C52",
"^  c #695E51",
"/  c #706D47",
"(  c #72624E",
")  c #777C47",
"_  c #7A7B41",
"`  c #676054",
"'  c #6A6155",
"]  c #676059",
"[  c #6C655A",
"{  c #6F695E",
"}  c #726454",
"|  c #726659",
" . c #726A5D",
".. c #796D5D",
"X. c #747753",
"o. c #7A7354",
"O. c #75705F",
"+. c #797D5D",
"@. c #746D62",
"#. c #7B6F60",
"$. c #777164",
"%. c #7A7264",
"&. c #7C766A",
"*. c #75796D",
"=. c #7D796C",
"-. c #811426",
";. c #A11B31",
":. c #807866",
">. c #817C6E",
",. c #827E71",
"<. c #838254",
"1. c #868274",
"2. c #888476",
"3. c #878479",
"4. c #898679",
"5. c #8C897C",
"6. c #93907E",
"7. c #8F8B80",
"8. c #918E82",
"9. c #8D9482",
"0. c #939184",
"q. c white",
/* pixels */
"s s s s s s s s s s s s s s s s s s s s p d d s s s s s s s s s ",
"s s s s s s s s s s s s s s s s s s s s s p p p s s s s s s s s ",
"s s s s s s s s s s s s s s . . . . . . . s s s s s s s s s s s ",
"s s s s s s s s s i p s s . ;.;.;.;.;.;.-.. s d d s s s s s s s ",
"s s s s s s s B n ....N . ;.. . . . ;.;.;.-.. d a s s s s s s s ",
"s s s s s s | &.=.=.=.. ;..         . ;.;.;.-.. 9.S m s s s s s ",
"s s s s u ..1.>.>.2.. ;..             . ;.;.-.. | %.1.! s s s s ",
"s s s i ( 1.1.1.4.>.. ;..             . ;.;.-.-.. 1.=.1.( s s s ",
"s s s ( >.,.4.5.%.^ . ;.. q.      q.  . ;.-.-.-.. 4.1.1.3.Q s s ",
"s s r 1.3.3.5.@.~ ^ . ;.. q.      q.  . ;.-.. -.. %.5.1.1.3.( s ",
"s s ..4.,.7.8.^ W z . -..             . ;.-.. -.. @.@.0.5.@.@.A ",
"s s ! :.#.#.#.U V W . -..           . ;.-.-.. . { ' ' =.V C V A ",
"s b 3.,.,.&.C h W ^ E . -..       . -.-.-.. z | @.C ^  .,.=.3.e ",
"s b 7.,.2.,.T z W ^ L * . -.. . . -.-.. . J n :.' ! - =.=.=.| w ",
"s b 3.1.,.,.,.C U v $ . -.;.;.;.;.;.-.-.-.. ) j ' ` Z =.=.,. .4 ",
"s b { 7.5.4.,.T > , . -.;.;.;.;.;.;.;.;.;.- . K j Q R :.,.1.W 2 ",
"s g  .,.5.5.,.8.$ 4 . -.;.;.;.;.;.;.;.;.;.-.. G d - g ,.,.4.P $ ",
"s y Q { 4.0.,.! | r . ;.;.;.;.;.;.;.;.;.;.;.. A } 1.2.| } P c $ ",
"p t = @.#.| T ,.2.#.. ;.;.;.;.;.;.;.;.;.;.;.-.. 1.1.1.4.Y v ; # ",
"u g &.T %.Q 2.5.4.4.5.,.S T M 9 4 2 4 C N ..5.2.1.1.2.P v x = # ",
"y g [ $.Q T | %.0.5.5.5.( 2.,.>.>.>.#.#...2.4.4.2...E I v = = # ",
"t : ] @.&.z  .@.$.5.8.1.2.4.2.,.,.2.2.1.2.%.0.O.` E P Q h P = , ",
"0 : [  .@.2.R $.$.#.&.T ,.=.3.5.5.7.5.1.>.%. .' ^ E I l L L = < ",
"0 , Q [ @.%.5.^ | $.%.C { {  .{  .{ {  .[ } ' ! E E ; L L L & < ",
"0 < & ' @.@.&.U Z  .$.c { {  .{  .{  .' ] ^ ` L C % x v L = , 8 ",
"t 8 $ % [ @.&.C ' c ; h ' ' [ [ { { ~ ~ ~ E = L v ; v v x , 1 0 ",
"p t 3 , % @.$.L { { ] Y L Y ; : ; ; ; x v Z I P v = v l 5 b m t ",
"s u t 8 , & c v [ [ [ ~ ^ ~ W Y ~ ~ ~ ~ ~ I I L P % % & r r t p ",
"s s _ o.k , # + X v L ^ ^ ~ W W ] ] ~ ~ ~ I I P ; + # 7 r t u s ",
"s d <.6./ 8 7 1 # , $ o @ v L L { ] ~ L L l o o , , 3 9 t p s s ",
"s s J _ F D o...q 3 < $ $ # # @ o o O 1 6 , , < 8 0 t u s s G f ",
"s s p d p p +.X.o.*.9 8 3 3 < , # $ , < 3 8 9 t y u p s H H s s "
};
